<?xml version="1.0" standalone="no"?>
<!DOCTYPE svg PUBLIC "-//W3C//DTD SVG 1.1//EN" "http://www.w3.org/Graphics/SVG/1.1/DTD/svg11.dtd" >
<svg xmlns="http://www.w3.org/2000/svg" xmlns:xlink="http://www.w3.org/1999/xlink" version="1.1">
<metadata>
Created by FontForge 20161013 at Wed Nov  9 19:42:40 2016
 By ,,,
</metadata>
<defs>
<font id="M.Video-Light" horiz-adv-x="1044" >
  <font-face 
    font-family="MVideo"
    font-weight="300"
    font-stretch="normal"
    units-per-em="2048"
    panose-1="2 0 0 0 0 0 0 0 0 0"
    ascent="1536"
    descent="-512"
    x-height="991"
    cap-height="1346"
    bbox="-81.2727 -539 2068 1656.28"
    underline-thickness="102"
    underline-position="-306"
    unicode-range="U+000D-25FC"
  />
<missing-glyph horiz-adv-x="483" 
 />
    <glyph glyph-name=".notdef" horiz-adv-x="483" 
 />
    <glyph glyph-name=".null" horiz-adv-x="0" 
 />
    <glyph glyph-name="nonmarkingreturn" horiz-adv-x="682" 
 />
    <glyph glyph-name="NULL" horiz-adv-x="0" 
 />
    <glyph glyph-name="NULL" horiz-adv-x="0" 
 />
    <glyph glyph-name="CR" unicode="&#xd;" horiz-adv-x="483" 
 />
    <glyph glyph-name="space" unicode=" " horiz-adv-x="483" 
 />
    <glyph glyph-name="exclam" unicode="!" horiz-adv-x="520" 
d="M168 47q0 46 28.5 70t63.5 24q33 0 62.5 -21t29.5 -61q0 -46 -29 -69t-63 -25q-35 0 -63.5 20t-28.5 62zM182 1356q-2 36 17 59.5t61 24.5q42 -1 61 -24.5t17 -59.5l-45 -903q0 -21 -23 -21h-20q-23 0 -23 21z" />
    <glyph glyph-name="quotedbl" unicode="&#x22;" horiz-adv-x="641" 
d="M133 903l27 402q2 22 11 32t34 9h49q42 0 33 -48l-90 -395q-6 -24 -29 -24h-10q-15 0 -20 5t-5 19zM375 903l26 402q2 22 11 32t34 9h50q41 0 32 -48l-90 -395q-6 -24 -28 -24h-11q-15 0 -19.5 5t-4.5 19z" />
    <glyph glyph-name="numbersign" unicode="#" horiz-adv-x="1366" 
d="M121 367v39q0 20 24 20h193l86 326h-217q-25 0 -25 20v39q0 20 25 20h239l84 312q5 24 35 24h39q27 0 21 -24l-84 -312h417l84 312q5 24 35 24h39q27 0 21 -24l-84 -312h178q24 0 24 -20v-39q0 -20 -24 -20h-199l-88 -326h225q25 0 25 -20v-39q0 -21 -25 -21h-245
l-86 -321q-8 -25 -35 -25h-41q-27 0 -21 25l86 321h-415l-86 -321q-8 -25 -35 -25h-41q-27 0 -21 25l86 321h-170q-24 0 -24 21zM432 426h418l86 326h-416z" />
    <glyph glyph-name="dollar" unicode="$" horiz-adv-x="1173" 
d="M305 934q0 141 93.5 226.5t232.5 101.5v141q0 37 37 37h24q37 0 37 -37v-139q72 -3 134 -19.5t104.5 -50t42.5 -78.5q0 -15 -6 -33q-8 -18 -27 -4q-142 90 -287 90q-71 0 -132 -23t-104.5 -77.5t-43.5 -132.5q0 -61 36.5 -108t95 -78t129.5 -60t141.5 -61.5t129 -73.5
t95 -105.5t36.5 -148.5q0 -79 -28 -141t-76.5 -101t-109 -60.5t-130.5 -25.5v-153q0 -37 -37 -37h-24q-37 0 -37 37v155q-56 4 -106.5 15.5t-95.5 31.5t-72 52.5t-27 72.5q0 22 8 35q10 16 27 2q64 -48 153.5 -80t179.5 -32q71 0 129 21t98 73t40 129q0 70 -36.5 122.5
t-94.5 85t-128.5 60.5t-141 58t-128.5 67.5t-94.5 100t-36.5 145.5z" />
    <glyph glyph-name="percent" unicode="%" horiz-adv-x="1515" 
d="M111 995q0 128 71 212.5t205 84.5q138 0 207.5 -82t69.5 -200q0 -128 -71.5 -212.5t-205.5 -84.5q-94 0 -158 41.5t-91 103t-27 137.5zM207 1001q0 -88 47.5 -147t132.5 -59q84 0 132 62.5t48 148.5q0 88 -47.5 147t-132.5 59q-84 0 -132 -62.5t-48 -148.5zM288 9
q-4 9 5 22l831 1226q21 29 47 29h58q15 0 19 -9t-5 -22l-827 -1226q-21 -29 -47 -29h-62q-15 0 -19 9zM862 256q0 128 71.5 212.5t205.5 84.5q71 0 125.5 -24t86.5 -64.5t48 -89.5t16 -105q0 -128 -71 -212.5t-205 -84.5q-71 0 -126 24t-87 64.5t-48 89.5t-16 105zM958 262
q0 -88 47.5 -147.5t133.5 -59.5q84 0 132 62.5t48 148.5q0 88 -47.5 147.5t-132.5 59.5t-133 -62.5t-48 -148.5z" />
    <glyph glyph-name="ampersand" unicode="&#x26;" horiz-adv-x="1275" 
d="M80 455q0 158 89 270.5t251 142.5q-84 33 -132 107t-48 162q0 115 90 190.5t241 75.5q70 0 139.5 -15t119 -46.5t49.5 -71.5q0 -20 -17 -37q-10 -8 -24 -2q-52 31 -125 52.5t-142 21.5q-96 0 -157.5 -44.5t-61.5 -138.5q0 -90 68.5 -157.5t161.5 -67.5h53q11 0 19 -7
t8 -18v-36q0 -11 -8 -18t-19 -7h-70q-184 -10 -275 -108.5t-91 -241.5q0 -84 25 -151.5t66.5 -111.5t98 -73.5t117.5 -42t127 -12.5q185 0 304.5 104t119.5 268q0 169 -105 269q-112 -49 -152 -78q-93 -69 -85 -172q0 -9 -8 -12t-19 0q-25 9 -39 32.5t-14 53.5
q0 59 29.5 104.5t77.5 74t105 53t114.5 47t105.5 48.5t77.5 65.5t29.5 90.5q0 8 -5 33q-1 7 5 11.5t18 4.5q30 0 47.5 -28t17.5 -66q0 -41 -18.5 -75.5t-55 -63t-72 -49t-87.5 -44.5q139 -130 139 -313q0 -92 -35.5 -173.5t-102 -144.5t-171 -100t-233.5 -37
q-84 0 -161 17.5t-147 55.5t-121 93t-81.5 136.5t-30.5 179.5z" />
    <glyph glyph-name="quotesingle" unicode="'" horiz-adv-x="460" 
d="M133 903l14 402q0 43 46 41h49q41 0 32 -48l-77 -395q-3 -15 -9 -19.5t-20 -4.5h-10q-15 0 -20 5t-5 19z" />
    <glyph glyph-name="parenleft" unicode="(" horiz-adv-x="641" 
d="M102 567q0 138 31.5 275t93 266t165 238t237.5 176q28 13 35 -11l6 -20q0 -1 1.5 -5.5t1.5 -6t1 -5.5t0.5 -5.5t-0.5 -4.5t-1.5 -5t-3.5 -4t-5 -3q-205 -102 -329 -350.5t-124 -526.5q0 -123 26 -252.5t77.5 -255.5t141 -231t203.5 -160q17 -8 9 -38l-9 -25
q-7 -24 -38 -10q-246 128 -382.5 394t-136.5 570z" />
    <glyph glyph-name="parenright" unicode=")" horiz-adv-x="649" 
d="M-24.5 1468.5q-0.5 1.5 0.5 5.5t1 5.5t1.5 6t1.5 5.5l6 20q7 23 34 11q134 -67 237.5 -176t165 -238t93 -266t31.5 -275q0 -198 -57.5 -383t-176.5 -340.5t-284 -240.5q-13 -6 -24.5 -3t-14.5 13l-8 25q-8 30 8 38q114 55 203.5 160t141 231t77.5 255.5t26 252.5
q0 278 -123.5 526.5t-328.5 350.5q-3 1 -5 3t-3.5 4t-1.5 5t-0.5 4.5z" />
    <glyph glyph-name="asterisk" unicode="*" horiz-adv-x="921" 
d="M98 1354q10 37 41.5 46t67.5 -11l246 -134l-56 295q-8 41 9.5 68t54.5 27t54 -27t9 -68l-55 -295l246 134q36 20 67 11t41 -46q10 -35 -9.5 -59t-61.5 -29l-277 -31l207 -209q30 -30 31.5 -60t-31.5 -53q-31 -21 -60 -9.5t-44 48.5l-117 269l-117 -269q-15 -37 -44 -48.5
t-60 9.5q-33 23 -31.5 53t31.5 60l206 209l-276 31q-42 5 -62 29t-10 59z" />
    <glyph glyph-name="plus" unicode="+" horiz-adv-x="1062" 
d="M119 612v25q0 33 26 33h340v364q0 27 33 27h25q32 0 32 -27v-364h343q26 0 26 -33v-25q0 -32 -26 -32h-343v-367q0 -15 -7.5 -21t-24.5 -6h-25q-33 0 -33 27v367h-340q-15 0 -20.5 7t-5.5 25z" />
    <glyph glyph-name="comma" unicode="," horiz-adv-x="450" 
d="M113 -262q41 43 66.5 97t25.5 106q0 66 -51 114q-12 12 -7 25q34 61 103 61q38 0 64 -28.5t26 -81.5q0 -52 -20 -105.5t-52.5 -97.5t-60 -74t-53.5 -53q-14 -11 -27 0l-14 12q-13 13 0 25z" />
    <glyph glyph-name="hyphen" unicode="-" horiz-adv-x="960" 
d="M164 494v32q0 33 26 33h580q27 0 27 -33v-32q0 -33 -27 -33h-580q-15 0 -20.5 7.5t-5.5 25.5z" />
    <glyph glyph-name="period" unicode="." horiz-adv-x="415" 
d="M121 47q0 46 28.5 70t63.5 24q33 0 62.5 -21t29.5 -61q0 -39 -26 -66.5t-66 -27.5q-34 0 -63 21.5t-29 60.5z" />
    <glyph glyph-name="slash" unicode="/" horiz-adv-x="841" 
d="M-79 -197.5q-5 9.5 1 21.5l758 1495q14 27 39 27h51q15 0 19.5 -9.5t-1.5 -21.5l-755 -1495q-13 -27 -39 -27h-53q-15 0 -20 9.5z" />
    <glyph glyph-name="zero" unicode="0" horiz-adv-x="1132" 
d="M111 647q0 653 458 653q449 0 449 -673q0 -107 -12 -197t-44 -176.5t-82 -147t-131.5 -97t-187.5 -36.5q-450 0 -450 674zM215 621q0 -549 350 -549q86 0 150 34.5t101 88.5t59.5 133.5t30 156t7.5 170.5q0 90 -9.5 166.5t-34 148.5t-62.5 122.5t-100 81t-142 30.5
q-86 0 -150.5 -34t-102 -88t-60 -133.5t-30 -156.5t-7.5 -171z" />
    <glyph glyph-name="one" unicode="1" horiz-adv-x="663" 
d="M50 1035.5q0 10.5 9 17.5l273 211q24 18 47 18h51q31 0 31 -33v-1216q0 -33 -31 -33h-41q-31 0 -31 33v1134l-241 -184q-23 -15 -37 4l-25 31q-5 7 -5 17.5z" />
    <glyph glyph-name="two" unicode="2" horiz-adv-x="954" 
d="M74 29v65q4 67 29 125.5t63 102.5t86 84t100.5 74.5t104 69.5t98 75t82.5 83.5t57 101.5t21 124q0 121 -77.5 190.5t-199.5 69.5q-174 0 -303 -107q-10 -6 -16 3q-13 26 -13 45q0 51 55 90t128.5 56t148.5 17q96 0 170 -28t120 -77.5t69.5 -113.5t23.5 -139
q0 -94 -33.5 -174t-87.5 -137.5t-119.5 -108t-133 -96.5t-125 -92.5t-98.5 -105.5t-50 -126h635q31 0 31 -28v-43q0 -13 -8.5 -21t-22.5 -8h-705q-30 0 -30 29z" />
    <glyph glyph-name="three" unicode="3" horiz-adv-x="909" 
d="M59 139q0 13 7 31q5 8 12 4q61 -45 143.5 -70.5t163.5 -25.5q180 0 255 74t75 206q0 70 -23 122.5t-60.5 84t-93 50.5t-111 25.5t-124.5 6.5q-16 0 -22.5 4t-6.5 17v16q0 19 23 49l348 441h-543q-30 0 -30 28v51q0 29 30 29h664q13 0 20 -11.5t7 -27.5v-14
q-1 -13 -27 -49l-360 -451q188 -2 300.5 -94t112.5 -277q0 -84 -25.5 -153t-77 -121.5t-135 -81.5t-192.5 -29q-42 0 -93 8t-107 25.5t-93 52t-37 80.5z" />
    <glyph glyph-name="four" unicode="4" horiz-adv-x="1015" 
d="M57 358v50q0 34 25 69l565 772q26 33 55 33h78q31 0 31 -33v-837h123q33 0 33 -29v-41q0 -27 -33 -27h-123v-282q0 -33 -31 -33h-41q-30 0 -30 33v282h-605q-47 0 -47 43zM143 412h566v772z" />
    <glyph glyph-name="five" unicode="5" horiz-adv-x="983" 
d="M121 139q0 16 6 31q5 8 12 4q61 -45 143.5 -70.5t163.5 -25.5q150 0 242 75t92 232q0 63 -18 117.5t-53.5 98.5t-96 69.5t-139.5 25.5q-128 0 -248 -63q-17 -12 -39 -2l-22 10q-17 8 -14 41l63 571q6 29 31 29h594q30 0 30 -29v-51q0 -28 -30 -28h-539l-55 -443
q127 62 248 62q107 0 194.5 -43.5t143 -136.5t55.5 -222q0 -186 -108.5 -302t-315.5 -116q-40 0 -90.5 7.5t-110.5 24t-99.5 51.5t-39.5 83z" />
    <glyph glyph-name="six" unicode="6" horiz-adv-x="1060" 
d="M131 502q0 159 42.5 293t112.5 224.5t163 154t192 93t201 31.5q30 0 30 -22v-53q0 -25 -22 -25q-244 -6 -409.5 -154.5t-204.5 -416.5h2q59 87 151.5 133.5t198.5 46.5q114 0 201 -57t130.5 -148.5t43.5 -200.5q0 -184 -113 -306t-309 -122q-87 0 -157 28.5t-116.5 77
t-78 117t-45 144.5t-13.5 162zM238 457q0 -184 81.5 -289t233.5 -105q76 0 136 27t96 73.5t54.5 103.5t18.5 122q0 156 -77.5 242t-196.5 86q-118 0 -214 -73.5t-132 -186.5z" />
    <glyph glyph-name="seven" unicode="7" horiz-adv-x="837" 
d="M49 1200v51q0 13 8.5 21t22.5 8h688q14 0 22.5 -8t8.5 -21v-73q0 -26 -13 -56l-510 -1093q-13 -29 -32 -29h-72q-13 0 -18.5 8t0.5 21l546 1142h-620q-14 0 -22.5 8t-8.5 21z" />
    <glyph glyph-name="eight" unicode="8" horiz-adv-x="1064" 
d="M127 291q0 126 76.5 221.5t218.5 149.5q-122 78 -184 158t-62 184q0 126 90 209t273 83q174 0 271 -87.5t97 -209.5q0 -116 -70.5 -192.5t-207.5 -138.5q145 -76 227 -169.5t82 -217.5q0 -97 -56 -168t-146 -105.5t-201 -34.5q-187 0 -297.5 85.5t-110.5 232.5zM231 295
q0 -102 83.5 -168t217.5 -66q75 0 142.5 25.5t113.5 77t46 117.5q0 25 -6 49t-14 44t-24 41.5t-28.5 36t-36.5 34t-37.5 30.5t-42 29t-40.5 25.5t-42.5 25t-38.5 22.5q-140 -56 -216.5 -140t-76.5 -183zM279 1004q0 -51 21.5 -96t62.5 -81.5t80 -62t92 -53.5
q270 114 270 290q0 99 -79.5 154t-188.5 55q-108 0 -183 -53t-75 -153z" />
    <glyph glyph-name="nine" unicode="9" horiz-adv-x="1046" 
d="M98 870q0 190 111 309t305 119q85 0 153.5 -28.5t114.5 -77t76 -116.5t43.5 -144t13.5 -162q0 -159 -41.5 -293t-110.5 -224.5t-160.5 -154.5t-188.5 -93.5t-197 -31.5q-31 0 -31 23v53q0 25 23 25q239 6 401 154.5t201 416.5h-2q-58 -87 -149 -133.5t-195 -46.5
q-111 0 -196 57t-128 148t-43 200zM203 883q0 -155 75.5 -241.5t190.5 -86.5q116 0 210 73t130 187q0 185 -78.5 289t-226.5 104q-99 0 -169 -47t-101 -119t-31 -159z" />
    <glyph glyph-name="colon" unicode=":" horiz-adv-x="415" 
d="M121 47q0 46 28.5 70t63.5 24q33 0 62.5 -21t29.5 -61q0 -39 -26 -66.5t-66 -27.5q-34 0 -63 21.5t-29 60.5zM121 893q0 46 28.5 70t63.5 24q33 0 62.5 -21t29.5 -61q0 -39 -26 -66.5t-66 -27.5q-34 0 -63 21.5t-29 60.5z" />
    <glyph glyph-name="semicolon" unicode=";" horiz-adv-x="450" 
d="M113 -262q41 43 66.5 97t25.5 106q0 66 -51 114q-12 12 -7 25q34 61 103 61q38 0 64 -28.5t26 -81.5q0 -52 -20 -105.5t-52.5 -97.5t-60 -74t-53.5 -53q-14 -11 -27 0l-14 12q-13 13 0 25zM156 893q0 46 28.5 70t63.5 24q33 0 62.5 -21t29.5 -61q0 -39 -26 -66.5
t-66 -27.5q-34 0 -63 21.5t-29 60.5z" />
    <glyph glyph-name="less" unicode="&#x3c;" horiz-adv-x="946" 
d="M94 537v43q0 17 5 27.5t24 21.5l614 323q15 8 25 0.5t10 -26.5v-25q0 -41 -22 -55l-433 -225l-137 -66l137 -66l433 -225q22 -14 22 -55v-19q0 -19 -10 -26.5t-25 0.5l-614 323q-19 11 -24 22t-5 28z" />
    <glyph glyph-name="equal" unicode="=" horiz-adv-x="1171" 
d="M150 449v24q0 33 26 33h817q27 0 27 -33v-24q0 -33 -27 -33h-817q-15 0 -20.5 7.5t-5.5 25.5zM150 768v25q0 32 26 32h817q27 0 27 -32v-25q0 -33 -27 -33h-817q-15 0 -20.5 7.5t-5.5 25.5z" />
    <glyph glyph-name="greater" unicode="&#x3e;" horiz-adv-x="946" 
d="M174 190v19q0 41 23 55l432 225l137 66l-137 66l-432 225q-23 14 -23 55v25q0 19 10 26.5t25 -0.5l614 -323q19 -11 24 -21.5t5 -27.5v-43q0 -17 -5 -28t-24 -22l-614 -323q-15 -8 -25 -0.5t-10 26.5z" />
    <glyph glyph-name="question" unicode="?" horiz-adv-x="835" 
d="M106 1300q0 46 48 80t115 48.5t139 13.5q160 -3 243.5 -82t83.5 -193q0 -56 -21 -108t-55 -93.5t-74.5 -80t-81.5 -73.5t-75 -69t-55 -72.5t-21 -76.5q0 -105 117 -123q19 -3 10 -25q-25 -43 -78 -43q-70 0 -111.5 57t-41.5 132q0 55 20.5 104t54 86t73.5 71.5t79.5 67.5
t73 67t54 76t20.5 89q0 93 -66.5 138.5t-171.5 45.5q-65 0 -133 -20.5t-117 -52.5q-12 -8 -18 2q-11 18 -11 34zM303 47q0 46 28.5 70t63.5 24q33 0 62.5 -21t29.5 -61q0 -46 -29 -69t-63 -25q-35 0 -63.5 20t-28.5 62z" />
    <glyph glyph-name="at" unicode="@" horiz-adv-x="1996" 
d="M203 430q0 198 67 361t183.5 270t273 165t336.5 58q177 0 326 -56.5t251.5 -157.5t160 -244t57.5 -312q0 -112 -22.5 -208t-67.5 -171.5t-119 -118.5t-170 -43q-149 0 -211 121q-136 -121 -316 -121q-120 0 -190 66.5t-70 163.5q0 132 98.5 205t278.5 73q72 0 168 -22
v125q0 168 -215 168q-136 0 -260 -72q-13 -6 -19 0q-14 20 -14 45q0 31 33 55.5t82 38t96 20.5t84 7q307 0 307 -273v-354q3 -84 49.5 -122t110.5 -38q75 0 129.5 43t82 114.5t40 145.5t12.5 154q0 318 -189.5 500t-504.5 182q-233 0 -405.5 -99t-261.5 -272.5t-89 -398.5
q0 -159 44 -290.5t116 -219t168.5 -148t198.5 -87.5t208 -27q130 0 283 45q31 8 31 -23v-38q0 -21 -19 -27q-162 -47 -311 -47q-177 0 -327 59t-260 168t-172 273t-62 364zM788 215q0 -77 46.5 -112t123.5 -35q82 0 160 35.5t119 84.5v179q-78 22 -190 22q-127 0 -193 -49
t-66 -125z" />
    <glyph glyph-name="A" unicode="A" horiz-adv-x="1183" 
d="M1 10q-2 5 -2 10q0 7 3 15l553 1317q10 22 31 22h16q21 0 31 -22l549 -1317q3 -8 3 -14q-1 -6 -3 -11q-6 -10 -17 -10h-47q-22 0 -34 5t-19 24l-127 311h-692l-127 -311q-8 -19 -19.5 -24t-33.5 -5h-48q-12 0 -17 10zM289 442h606l-238 584l-63 172l-64 -172z" />
    <glyph glyph-name="B" unicode="B" horiz-adv-x="1216" 
d="M207 33v1280q0 15 9 24t24 9h372q205 0 317.5 -91.5t112.5 -242.5q0 -65 -21 -124.5t-72 -112.5t-126 -77v-6q74 -13 130.5 -46.5t88.5 -80t48 -97t16 -103.5q0 -172 -126 -268.5t-364 -96.5h-376q-15 0 -24 9t-9 24zM313 102h342q166 0 251 75t85 198t-80 190.5
t-237 67.5h-361v-531zM313 731h312q141 0 224 79.5t83 193.5q0 112 -81 176.5t-243 64.5h-295v-514z" />
    <glyph glyph-name="C" unicode="C" horiz-adv-x="1208" 
d="M98 680q0 317 179 505.5t475 188.5q90 0 185 -22.5t162.5 -64.5t67.5 -89q0 -25 -8 -41q-5 -8 -18 -2q-203 119 -396 119q-112 0 -208.5 -37.5t-171 -109.5t-117.5 -188t-43 -263q0 -123 30.5 -224.5t81 -170t119 -116t142.5 -68.5t153 -21q207 0 395 117q19 12 29 -9
l21 -45q3 -6 3 -12q0 -12 -12 -21q-179 -133 -440 -133q-128 0 -240.5 44.5t-200 129.5t-138 222.5t-50.5 310.5z" />
    <glyph glyph-name="D" unicode="D" horiz-adv-x="1357" 
d="M207 49v1264q0 15 9 24t24 9h176q833 0 833 -684q0 -311 -197.5 -493.5t-551.5 -182.5h-16q-44 0 -66.5 0.5t-61 2t-60 5.5t-45 10.5t-34 18t-10.5 26.5zM313 100q71 -10 164 -10q316 0 491 141.5t175 436.5q0 87 -15.5 159.5t-42 127t-67.5 98.5t-85.5 74t-105 52
t-116.5 34.5t-128 19.5t-132.5 9.5t-137.5 2.5v-1145z" />
    <glyph glyph-name="E" unicode="E" horiz-adv-x="1062" 
d="M207 33v1280q0 15 9 24t24 9h721q32 0 32 -33v-37q0 -33 -32 -33h-648v-506h531q33 0 33 -32v-37q0 -15 -9 -24t-24 -9h-531v-533h648q32 0 32 -32v-37q0 -33 -32 -33h-721q-15 0 -24 9t-9 24z" />
    <glyph glyph-name="F" unicode="F" horiz-adv-x="997" 
d="M207 33v1280q0 15 9 24t24 9h710q15 0 24 -9t9 -24v-37q0 -15 -9 -24t-24 -9h-637v-534h504q15 0 24 -9t9 -24v-37q0 -15 -9 -24t-24 -9h-504v-573q0 -33 -32 -33h-41q-15 0 -24 9t-9 24z" />
    <glyph glyph-name="G" unicode="G" horiz-adv-x="1343" 
d="M98 680q0 316 181 505t477 189q90 0 186.5 -22.5t166 -64.5t69.5 -89q0 -23 -9 -41q-5 -8 -18 -2q-203 119 -401 119q-112 0 -209 -37.5t-173 -109.5t-119.5 -188t-43.5 -263q0 -123 30.5 -224.5t82 -170t120.5 -116t143.5 -68.5t153.5 -21q108 0 213 37t182 108v344
h-417q-14 0 -22.5 8t-8.5 21v45q0 13 8.5 21t22.5 8h489q14 0 22.5 -8t8.5 -21v-393q0 -45 -25 -76q-169 -197 -477 -197q-128 0 -241 44.5t-201 129.5t-139.5 222.5t-51.5 310.5z" />
    <glyph glyph-name="H" unicode="H" horiz-adv-x="1449" 
d="M207 33v1280q0 15 9 24t24 9h41q32 0 32 -33v-582h822v582q0 33 32 33h41q15 0 24 -9t9 -24v-1280q0 -15 -9 -24t-24 -9h-41q-32 0 -32 33v596h-822v-596q0 -33 -32 -33h-41q-15 0 -24 9t-9 24z" />
    <glyph glyph-name="I" unicode="I" horiz-adv-x="514" 
d="M203 33v1280q0 15 9 24t24 9h40q15 0 24 -9t9 -24v-1280q0 -15 -9 -24t-24 -9h-40q-15 0 -24 9t-9 24z" />
    <glyph glyph-name="J" unicode="J" horiz-adv-x="528" 
d="M4 -225q45 32 79 67t56.5 65.5t38 71t23 68.5t11.5 74t4.5 72t0.5 78v10v1032q0 15 9 24t24 9h41q15 0 24 -9t9 -24v-1043q-1 -80 -7.5 -140.5t-23 -125t-45 -114t-75 -96t-110.5 -83.5q-9 -6 -17 -6q-11 0 -21 10l-21 25q-9 11 -9 19.5t9 15.5z" />
    <glyph glyph-name="K" unicode="K" horiz-adv-x="1187" 
d="M207 33v1280q0 15 9 24t24 9h41q32 0 32 -33v-582h285l393 594q16 21 41 21h55q17 0 22 -8.5t-3 -20.5l-414 -621l471 -667q6 -8 6 -14q1 -3 -1 -7q-4 -8 -19 -8h-62q-24 0 -38 6t-27 25l-387 557q-31 47 -76 47h-246v-602q0 -33 -32 -33h-41q-15 0 -24 9t-9 24z" />
    <glyph glyph-name="L" unicode="L" horiz-adv-x="1026" 
d="M207 33v1280q0 15 9 24t24 9h41q32 0 32 -33v-1202h686q15 0 24 -9t9 -24v-45q0 -15 -9 -24t-24 -9h-759q-15 0 -24 9t-9 24z" />
    <glyph glyph-name="M" unicode="M" horiz-adv-x="1724" 
d="M207 33l55 1280q0 15 9 24t24 9h86q34 0 47 -33l440 -1200l437 1200q13 33 47 33h92q15 0 24 -9t9 -24l55 -1280q0 -15 -9 -24t-24 -9h-39q-15 0 -24 9t-9 24l-38 938l-9 270l-96 -270l-346 -946q-13 -21 -31 -21h-78q-17 0 -30 21l-346 946l-95 270l-8 -270l-39 -938
q0 -33 -32 -33h-39q-15 0 -24 9t-9 24z" />
    <glyph glyph-name="N" unicode="N" horiz-adv-x="1417" 
d="M207 33v1280q0 15 9 24t24 9h30q23 0 45 -29l619 -879l194 -299q-16 187 -20 297v877q0 15 9 24t24 9h35q32 0 32 -33v-1280q0 -33 -32 -33h-39q-23 0 -45 29l-625 895l-178 264q2 -23 18 -244v-911q0 -15 -9 -24t-24 -9h-34q-15 0 -24 9t-9 24z" />
    <glyph glyph-name="O" unicode="O" horiz-adv-x="1519" 
d="M98 678q0 132 41 254t120 222t208.5 160t292.5 60q160 0 288.5 -58.5t208.5 -158t122 -225t42 -264.5q0 -105 -25 -204.5t-78.5 -189.5t-129.5 -157t-186.5 -106.5t-241.5 -39.5q-129 0 -238 38.5t-186.5 105t-131.5 156.5t-80 193t-26 214zM205 678q0 -90 22 -176.5
t68 -164t110.5 -136t156 -93t198.5 -34.5t198.5 33t156 89.5t110.5 132.5t68 162.5t22 178.5q0 90 -22 176.5t-68 164t-110.5 136t-156 93t-198.5 34.5t-198.5 -33t-156 -89.5t-110.5 -132.5t-68 -162.5t-22 -178.5z" />
    <glyph glyph-name="P" unicode="P" horiz-adv-x="1124" 
d="M207 33v1280q0 15 9 24t24 9h311q260 0 390 -111.5t130 -306.5q0 -93 -30.5 -169t-94.5 -137.5t-175 -97t-261 -37.5q-86 0 -197 9v-463q0 -33 -32 -33h-41q-15 0 -24 9t-9 24zM313 600q77 -14 176 -14q246 0 361 92t115 248q0 143 -97.5 231t-306.5 88h-248v-645z" />
    <glyph glyph-name="Q" unicode="Q" horiz-adv-x="1460" 
d="M98 678q0 105 25 204.5t78 189t128 156.5t183.5 106.5t237.5 39.5q127 0 234 -38.5t182.5 -105t128.5 -156.5t78.5 -192.5t25.5 -213.5q0 -122 -35 -236.5t-101.5 -211t-174.5 -162t-244 -81.5q248 -239 456 -239q84 0 158 55q18 11 29 -6q12 -22 12 -49q0 -35 -32.5 -61
t-74.5 -37t-83 -11q-281 0 -533 289q-12 14 -23.5 23.5t-27 16t-21 8.5t-27 6t-24.5 5q-135 17 -242.5 81.5t-175 160.5t-102.5 213t-35 246zM205 678q0 -114 35.5 -220t101.5 -193t172 -139t236 -52q104 0 193.5 33t152.5 89.5t108 132.5t66.5 162.5t21.5 178.5
q0 114 -35 220t-101 193t-171.5 139t-234.5 52q-130 0 -236 -50t-172 -134.5t-101.5 -190t-35.5 -221.5z" />
    <glyph glyph-name="R" unicode="R" horiz-adv-x="1179" 
d="M207 33v1280q0 15 9 24t24 9h307q109 0 196.5 -21t146.5 -57.5t98.5 -86.5t57 -105.5t17.5 -117.5q0 -137 -81.5 -235t-219.5 -137l354 -557q4 -7 4 -12q0 -4 -2 -8q-4 -9 -16 -9h-49q-31 0 -42 5.5t-24 25.5l-299 483q-28 47 -76 47h-299v-528q0 -33 -32 -33h-41
q-15 0 -24 9t-9 24zM313 657h252q192 0 291.5 81.5t99.5 219.5q0 289 -446 289h-197v-590z" />
    <glyph glyph-name="S" unicode="S" horiz-adv-x="1064" 
d="M121 1026q0 86 34 153.5t92.5 109.5t134.5 63.5t163 21.5q83 0 172 -24.5t149 -66t60 -83.5q0 -26 -25 -51q-8 -8 -18 0q-159 123 -357 123q-57 0 -109 -13.5t-96.5 -40.5t-71 -75.5t-26.5 -112.5q1 -64 43 -114t108 -84.5t146.5 -66.5t160 -69.5t145.5 -84.5t107.5 -121
t41.5 -168q0 -89 -37.5 -158.5t-100 -110.5t-137.5 -61.5t-157 -20.5q-69 0 -137.5 11.5t-128 33t-97 57.5t-37.5 81q0 17 11 39q7 11 18 4q73 -55 172.5 -87t196.5 -32q141 0 234 69.5t93 180.5q0 60 -25.5 108.5t-69 82.5t-99.5 62.5t-118 53t-123.5 49.5t-117.5 56.5
t-99.5 69.5t-69 93t-25.5 123z" />
    <glyph glyph-name="T" unicode="T" horiz-adv-x="999" 
d="M-2 1272v45q0 13 8.5 21t22.5 8h942q30 0 30 -29v-45q0 -29 -30 -29h-418v-1210q0 -15 -9 -24t-24 -9h-41q-15 0 -24 9t-9 24v1210h-417q-14 0 -22.5 8t-8.5 21z" />
    <glyph glyph-name="U" unicode="U" horiz-adv-x="1409" 
d="M199 668v645q0 33 32 33h41q15 0 24 -9t9 -24v-686q1 -125 23.5 -222.5t60 -158t89.5 -99.5t106.5 -54t117.5 -15q51 0 97.5 10.5t92.5 34.5t83 66.5t65.5 101t45 144.5t16.5 192v686q0 15 9 24t24 9h41q32 0 32 -33v-645q-11 -695 -503 -695q-497 0 -506 695z" />
    <glyph glyph-name="V" unicode="V" horiz-adv-x="1167" 
d="M51 1319q-1 4 -1 8q0 7 4 11q6 8 16 8h53q13 0 19.5 -1t14.5 -7t13 -19l424 -1233l410 1233q5 13 13 19t14.5 7t19.5 1h49q20 0 20 -16q0 -5 -2 -11l-434 -1282q-13 -37 -49 -37h-90q-36 0 -49 37z" />
    <glyph glyph-name="W" unicode="W" horiz-adv-x="1820" 
d="M72 1319q-2 6 -2 11q0 16 20 16h47q13 0 19.5 -1t14.5 -7t13 -19l334 -1235l305 1231q9 31 43 31h84q34 0 43 -31l320 -1231l327 1235q4 13 12.5 19t15.5 7t20 1h45q20 0 20 -16q0 -5 -2 -11l-350 -1282q-11 -37 -49 -37h-86q-38 0 -49 37q-23 88 -83 315.5t-108.5 418.5
t-99.5 400l-19 82l-18 -82l-281 -1134q-11 -37 -49 -37h-90q-38 0 -49 37z" />
    <glyph glyph-name="X" unicode="X" horiz-adv-x="1114" 
d="M59 10q-2 4 -2 8q0 6 4 13l431 671l-396 613q-7 12 -2 21.5t17 9.5h63q30 0 47 -27l350 -543l334 543q18 27 47 27h58q12 0 16.5 -9.5t-2.5 -21.5l-393 -629l424 -655q4 -7 4 -13q0 -4 -2 -8q-5 -10 -17 -10h-65q-30 0 -47 27l-379 587l-367 -587q-18 -27 -47 -27h-59
q-12 0 -17 10z" />
    <glyph glyph-name="Y" unicode="Y" horiz-adv-x="1021" 
d="M12 1336q5 10 17 10h59q30 0 47 -27l381 -635l381 635q17 27 47 27h60q12 0 16 -10q2 -3 2 -7q0 -7 -4 -14l-449 -737v-545q0 -33 -32 -33h-41q-15 0 -24 9t-9 24v545l-449 737q-4 7 -4 13q0 5 2 8z" />
    <glyph glyph-name="Z" unicode="Z" horiz-adv-x="1091" 
d="M111 1274v43q0 29 30 29h813q15 0 24 -9t9 -24v-82q0 -30 -18 -57l-758 -1074h784q31 0 31 -28v-43q0 -13 -8.5 -21t-22.5 -8h-843q-15 0 -24 9t-9 24v82q0 30 18 57l756 1073h-752q-30 0 -30 29z" />
    <glyph glyph-name="bracketleft" unicode="[" horiz-adv-x="653" 
d="M193 -340v1802q0 29 30 29h314q30 0 30 -29v-32q0 -29 -30 -29h-250v-1680h250q30 0 30 -28v-33q0 -29 -30 -29h-314q-30 0 -30 29z" />
    <glyph glyph-name="backslash" unicode="\" horiz-adv-x="841" 
d="M52 1336.5q5 9.5 20 9.5h55q25 0 39 -27l758 -1495q6 -12 1 -21.5t-20 -9.5h-57q-26 0 -39 27l-756 1495q-6 12 -1 21.5z" />
    <glyph glyph-name="bracketright" unicode="]" horiz-adv-x="653" 
d="M86 -307q0 28 31 28h250v1680h-250q-14 0 -22.5 8t-8.5 21v32q0 13 8.5 21t22.5 8h313q14 0 22.5 -8t8.5 -21v-1802q0 -13 -8.5 -21t-22.5 -8h-313q-14 0 -22.5 8t-8.5 21v33z" />
    <glyph glyph-name="asciicircum" unicode="^" horiz-adv-x="835" 
d="M11.5 926q-6.5 11 4.5 30l361 517q14 15 40.5 16t41.5 -16l360 -517q11 -19 5 -30t-25 -11h-47q-35 0 -56 29l-180 258l-98 164l-99 -164l-180 -258q-21 -29 -55 -29h-47q-19 0 -25.5 11z" />
    <glyph glyph-name="underscore" unicode="_" horiz-adv-x="1024" 
d="M51 -356q0 37 29 37h864q29 0 29 -37v-29q0 -37 -29 -37h-864q-17 0 -23 8.5t-6 28.5v29z" />
    <glyph glyph-name="grave" unicode="`" horiz-adv-x="569" 
d="M103 1419q2 15 18 15h86q21 0 30 -5.5t17 -19.5l141 -272q4 -6 1 -11.5t-13 -5.5h-29q-14 0 -22 8l-221 265q-10 11 -8 26z" />
    <glyph glyph-name="a" unicode="a" horiz-adv-x="1013" 
d="M111 252q0 75 26 134.5t69 96.5t102 61.5t120.5 34t130.5 9.5q93 0 244 -31v143q0 58 -22.5 100.5t-61.5 66.5t-86 35t-103 11q-91 0 -177 -22.5t-142 -59.5q-15 -9 -23 3q-14 22 -14 45q2 36 41.5 64t98 42.5t114 21.5t102.5 7q201 0 287 -86t86 -240v-651
q0 -37 -37 -37h-26q-30 0 -33 37l-8 106q-66 -80 -171 -125t-206 -45q-86 0 -149 24t-97 65.5t-49.5 88.5t-15.5 101zM213 256q0 -76 49.5 -131t161.5 -55q115 0 225 65t154 150v172q-98 39 -246 39q-68 0 -127 -12.5t-109 -39.5t-79 -75t-29 -113z" />
    <glyph glyph-name="b" unicode="b" horiz-adv-x="1128" 
d="M178 82v1352q0 18 8 27t29 9h27q21 0 29 -9t8 -27v-529q139 113 327 113q114 0 204.5 -41t146 -110t84 -155.5t28.5 -183.5q0 -133 -45 -240t-122 -175t-175.5 -104t-208.5 -36q-167 0 -317 72q-23 14 -23 37zM279 121q133 -47 253 -47q180 0 306.5 125t126.5 325
q0 81 -20 148t-54 113t-80.5 77t-98.5 45.5t-108 14.5q-87 0 -173.5 -37t-151.5 -99v-665z" />
    <glyph glyph-name="c" unicode="c" horiz-adv-x="956" 
d="M123 496q0 246 137 384t358 138q75 0 150.5 -17.5t131.5 -56t56 -88.5q0 -19 -10 -39q-4 -8 -16 -2q-85 53 -158 78t-158 25q-174 0 -280.5 -113.5t-106.5 -308.5q0 -196 107.5 -309t292.5 -113q131 0 278 86q24 13 37 -8l16 -27q5 -9 5 -16q0 -11 -11 -21
q-144 -115 -342 -115q-229 0 -358 142t-129 381z" />
    <glyph glyph-name="d" unicode="d" horiz-adv-x="1159" 
d="M123 465q0 246 135.5 399.5t382.5 153.5q146 0 299 -78v494q0 18 8 27t29 9h27q21 0 28.5 -8.5t7.5 -27.5v-1397q0 -19 -7.5 -28t-28.5 -9h-23q-30 0 -33 37l-12 147q-70 -102 -172.5 -156.5t-220.5 -54.5q-185 0 -302.5 133t-117.5 359zM227 465q0 -166 88.5 -278.5
t249.5 -112.5q110 0 214.5 75t160.5 203v486q-168 84 -311 84q-129 0 -222 -66t-136.5 -167.5t-43.5 -223.5z" />
    <glyph glyph-name="e" unicode="e" horiz-adv-x="1064" 
d="M123 492q0 237 122 380t351 146q192 0 298.5 -109.5t106.5 -290.5q0 -78 -20 -131q-6 -12 -20 -12h-734q0 -100 30.5 -178t84.5 -125.5t122.5 -71.5t147.5 -24q132 0 283 69q28 13 39 -12l14 -31q12 -27 -6 -39q-144 -90 -350 -90q-97 0 -180 31.5t-148.5 93.5
t-103 163.5t-37.5 230.5zM223 571h682v62q0 131 -87.5 209t-219.5 78q-97 0 -175 -35.5t-132.5 -115.5t-67.5 -198z" />
    <glyph glyph-name="f" unicode="f" horiz-adv-x="649" 
d="M96 926v28q0 16 17 19l145 18v70q0 203 102 309.5t285 106.5q61 0 105.5 -23.5t44.5 -71.5v-10q0 -16 -19 -10q-65 18 -137 18q-143 0 -212 -84t-69 -235v-70h273q19 0 28 -6t9 -24v-27q0 -31 -37 -31h-273v-866q0 -19 -7.5 -28t-28.5 -9h-27q-37 0 -37 37v866l-145 6
q-17 0 -17 17z" />
    <glyph glyph-name="g" unicode="g" horiz-adv-x="1103" 
d="M162 -225q0 79 39 151.5t106 116.5q-84 52 -84 156q0 105 86 170q-141 101 -141 288q0 159 107 260t298 101q197 0 314 -123q30 65 83 115.5t111 50.5q29 0 51.5 -20t22.5 -54v-12q0 -10 -14 -10q-104 -6 -211 -131q49 -84 49 -185q0 -159 -107.5 -259.5t-298.5 -100.5
q-115 0 -194 39q-60 -48 -60 -117q0 -43 32 -70.5t84.5 -38.5t119.5 -20t137 -14t137 -22t119.5 -43t84.5 -77.5t32 -124.5q-4 -158 -129 -249t-330 -91q-71 0 -135.5 11.5t-121.5 36t-98 61t-65 89t-24 116.5zM262 -215q0 -100 90 -162.5t258 -62.5q156 0 255.5 64
t99.5 163q0 62 -42.5 102.5t-115.5 58.5t-145 26.5t-157 15.5t-126 16q-50 -42 -83.5 -102t-33.5 -119zM272 653q0 -126 76.5 -201t224.5 -75q150 0 225.5 76.5t75.5 199.5q0 126 -77 201.5t-224 75.5q-150 0 -225.5 -77t-75.5 -200z" />
    <glyph glyph-name="h" unicode="h" horiz-adv-x="1144" 
d="M178 37v1397q0 18 8 27t29 9h27q21 0 29 -9t8 -27v-551q73 64 168 99.5t188 35.5q104 0 181.5 -29.5t122 -81.5t66 -115.5t21.5 -138.5v-616q0 -37 -37 -37h-26q-37 0 -37 37v571q0 83 -24.5 145t-66.5 97.5t-92 52.5t-108 17q-178 0 -356 -144v-739q0 -37 -37 -37h-27
q-37 0 -37 37z" />
    <glyph glyph-name="i" unicode="i" horiz-adv-x="479" 
d="M178 1319q0 39 23.5 63.5t62.5 24.5q41 0 68.5 -25t27.5 -63q0 -39 -27 -63.5t-69 -24.5q-40 0 -63 24t-23 64zM219 37v917q0 37 37 37h27q21 0 28.5 -9t7.5 -28v-917q0 -19 -7.5 -28t-28.5 -9h-27q-37 0 -37 37z" />
    <glyph glyph-name="j" unicode="j" horiz-adv-x="475" 
d="M-31 -467q7 -35 37 -51.5t66 -16.5q62 0 106.5 19.5t70.5 50t42 80.5t21.5 99.5t6.5 117.5v1122q0 19 -7.5 28t-28.5 9h-27q-37 0 -37 -37v-1130q-1 -49 -5 -86t-16.5 -75t-32.5 -62.5t-55 -40t-83 -15.5q-18 0 -50 4q-9 0 -9 -10q0 -3 1 -6zM178 1319q0 39 23.5 63.5
t62.5 24.5q41 0 68.5 -25t27.5 -63q0 -39 -27 -63.5t-69 -24.5q-40 0 -63 24t-23 64z" />
    <glyph glyph-name="k" unicode="k" horiz-adv-x="960" 
d="M178 37v1397q0 18 8 27t29 9h27q21 0 29 -9t8 -27v-873h213l315 406q19 24 51 24h53q12 0 16.5 -8.5t-3.5 -21.5l-342 -437l272 -374q61 -85 113 -119q6 -3 6 -10q0 -5 -4 -9q-20 -22 -68 -22q-13 0 -25 2t-23 8t-19.5 10.5t-20 16t-18 18.5t-18 23t-17 24t-19.5 28.5
t-20 29.5l-225 317h-217v-430q0 -37 -37 -37h-27q-37 0 -37 37z" />
    <glyph glyph-name="l" unicode="l" horiz-adv-x="493" 
d="M180 254v1180q0 18 8 27t29 9h27q21 0 29 -9t8 -27v-1178q-1 -106 23 -150q22 -41 72 -40h7q40 2 102 22q27 10 27 -16v-39q0 -15 -14 -25q-22 -14 -64.5 -24.5t-71.5 -10.5h-5q-45 0 -77 16q-34 17 -53.5 42.5t-30 65.5t-13.5 75t-3 82z" />
    <glyph glyph-name="m" unicode="m" horiz-adv-x="1658" 
d="M180 967q-1 4 -1 7q0 6 5 9q18 12 47 12q37 0 51 -29t17 -89q62 65 149 103t177 38q181 0 264 -160q84 84 165.5 122t180.5 38q23 0 43.5 -2t53 -9.5t59 -21t55.5 -40t48.5 -62t32.5 -90.5t13 -123v-633q0 -37 -37 -37h-26q-37 0 -37 37v588q0 153 -50.5 223t-156.5 70
q-81 0 -162.5 -40t-146.5 -102v-739q0 -37 -37 -37h-27q-37 0 -37 37v588q0 153 -53 224t-160 71q-161 0 -305 -144v-739q0 -37 -37 -37h-26q-37 0 -37 37v739q0 126 -25 191z" />
    <glyph glyph-name="n" unicode="n" horiz-adv-x="1173" 
d="M180 967q-1 4 -1 7q0 6 5 9q18 12 47 12q37 0 51 -29t17 -89q74 67 171 104t192 37q104 0 182 -29.5t123 -81t66.5 -115.5t21.5 -139v-616q0 -37 -37 -37h-27q-37 0 -37 37v571q0 83 -24.5 145t-67 97.5t-92.5 52.5t-108 17q-179 0 -357 -144v-739q0 -37 -37 -37h-26
q-37 0 -37 37v739q0 126 -25 191z" />
    <glyph glyph-name="o" unicode="o" horiz-adv-x="1177" 
d="M123 496q0 236 136 379t362 143q229 0 363 -142t134 -380q0 -237 -136 -380t-361 -143q-229 0 -363.5 142.5t-134.5 380.5zM227 496q0 -194 105 -308t289 -114t288.5 114.5t104.5 307.5q0 194 -104.5 308t-288.5 114t-289 -114.5t-105 -307.5z" />
    <glyph glyph-name="p" unicode="p" horiz-adv-x="1159" 
d="M176 967q-1 4 -1 7q0 6 5 9q18 12 47 12q36 0 50.5 -29.5t17.5 -86.5q155 139 377 139q193 0 310.5 -134t117.5 -368q0 -253 -146.5 -398t-375.5 -145q-66 0 -143.5 17.5t-133.5 46.5v-529q0 -18 -8 -27t-29 -9h-26q-21 0 -29 9t-8 27v1268q0 126 -25 191zM301 145
q114 -71 266 -71q210 0 319 127.5t109 337.5q0 168 -88.5 275.5t-247.5 107.5q-94 0 -192 -39t-166 -107v-631z" />
    <glyph glyph-name="q" unicode="q" horiz-adv-x="1116" 
d="M123 455q0 122 35.5 224t104 178t175.5 118.5t242 42.5q160 0 295 -76q22 -13 22 -37v-1397q0 -19 -7.5 -27.5t-28.5 -8.5h-27q-21 0 -29 9t-8 27v629q-141 -164 -360 -164q-129 0 -224.5 64.5t-142.5 172.5t-47 245zM227 453q0 -161 85.5 -270t234.5 -109q105 0 200 55
t150 150v587q-95 56 -221 56q-211 0 -330 -131.5t-119 -337.5z" />
    <glyph glyph-name="r" unicode="r" horiz-adv-x="688" 
d="M180 967q-1 4 -1 7q0 6 5 9q18 12 47 12q74 0 74 -155q55 82 133.5 125t157.5 43q47 0 84 -19t37 -53q0 -22 -21 -53q-5 -7 -16 -4q-46 14 -100 14q-87 0 -163 -54.5t-112 -150.5v-651q0 -37 -37 -37h-26q-37 0 -37 37v739q0 126 -25 191z" />
    <glyph glyph-name="s" unicode="s" horiz-adv-x="843" 
d="M131 113q0 24 12 45q7 10 17 2q47 -35 121 -60.5t149 -25.5q114 0 190 43t76 131q0 50 -31 89t-81 66t-110 51t-120.5 51t-110.5 58.5t-81 81t-31 111.5q0 63 28 114t74.5 82.5t105.5 48.5t124 17q67 0 136 -15.5t121 -50t52 -78.5q0 -29 -12 -43q-6 -6 -12 -2
q-137 89 -289 89q-40 0 -78 -7.5t-74 -24.5t-58 -49t-22 -75q0 -42 31.5 -77t81.5 -60t110.5 -49t121 -53t110.5 -64t81.5 -89.5t31.5 -121.5q0 -126 -97.5 -200.5t-273.5 -74.5q-58 0 -122.5 13.5t-117.5 47.5t-53 79z" />
    <glyph glyph-name="t" unicode="t" horiz-adv-x="729" 
d="M88 926v28q0 16 16 19l140 18l22 254q1 15 3 21.5t8 11t18 4.5h18q20 0 25.5 -8.5t5.5 -28.5v-254h279q19 0 27.5 -6t8.5 -24v-27q0 -18 -8.5 -24.5t-27.5 -6.5h-279v-457q0 -154 16 -233.5t51.5 -111t104.5 -31.5q67 0 148 36q26 10 26 -16v-33q0 -26 -22 -41
q-73 -43 -168 -43q-148 0 -202 97t-54 311v522h-140q-16 8 -16 23z" />
    <glyph glyph-name="u" unicode="u" horiz-adv-x="1118" 
d="M178 508v446q0 37 37 37h27q37 0 37 -37v-460q0 -224 60.5 -323t184.5 -99q105 0 207.5 75t167.5 215v592q0 37 37 37h27q21 0 28.5 -9t7.5 -28v-917q0 -19 -7.5 -28t-28.5 -9h-23q-30 0 -33 37l-12 160q-87 -119 -176.5 -171.5t-200.5 -52.5q-83 0 -144 28t-106 89.5
t-67.5 166t-22.5 251.5z" />
    <glyph glyph-name="v" unicode="v" horiz-adv-x="958" 
d="M78 958q-2 6 -2 12q0 8 3 12q5 10 15 9h51q35 0 45 -26l320 -885l328 885q10 26 45 26h43q10 1 15 -9q3 -5 3 -12q0 -5 -2 -12l-354 -927q-12 -31 -51 -31h-70q-39 0 -51 31z" />
    <glyph glyph-name="w" unicode="w" horiz-adv-x="1441" 
d="M102 958q-2 6 -2 11q0 7 4 13q6 10 15 9h53q34 0 43 -26l244 -877l233 873q9 30 51 30h39q43 0 52 -30l227 -873l244 877q8 26 43 26h47q10 1 15 -9q3 -5 3 -12q0 -5 -2 -12l-268 -927q-9 -31 -51 -31h-68q-42 0 -51 31l-189 698q-3 34 -13.5 98t-12.5 82l-33 -180
l-186 -698q-9 -31 -52 -31h-63q-42 0 -51 31z" />
    <glyph glyph-name="x" unicode="x" horiz-adv-x="905" 
d="M78 11q-2 4 -2 9q0 7 6 15l336 489l-299 432q-7 12 -1.5 23.5t15.5 11.5h57q28 0 46 -26l258 -371l256 371q18 26 45 26h49q11 0 16.5 -10.5t-2.5 -24.5l-305 -446l332 -475q4 -6 4 -13q0 -4 -3 -10q-6 -12 -16 -12h-59q-26 0 -45 27l-289 415l-287 -415q-19 -27 -45 -27
h-49q-12 0 -18 11z" />
    <glyph glyph-name="y" unicode="y" horiz-adv-x="958" 
d="M94 958q-2 6 -2 11q0 7 4 13q5 9 15 9h59q35 0 45 -26l279 -885q7 -23 24 -23h17l323 908q10 26 45 26h45q10 0 16 -9q3 -6 3 -13q0 -5 -2 -11l-390 -1089q-26 -72 -45 -119t-50.5 -106.5t-63 -94.5t-77 -59.5t-97.5 -24.5q-50 0 -85 25q-34 24 -34 83q0 10 5 13t11 0
q31 -16 74 -16q82 0 141 61.5t92 163.5l74 205h-67q-40 0 -52 31z" />
    <glyph glyph-name="z" unicode="z" horiz-adv-x="872" 
d="M100 932v22q0 37 37 37h666q37 0 37 -37v-53q0 -29 -23 -55l-604 -750h621q18 0 27 -8t9 -29v-22q0 -21 -9 -29t-27 -8h-695q-37 0 -37 37v49q0 29 23 55l604 754h-592q-37 0 -37 37z" />
    <glyph glyph-name="braceleft" unicode="{" horiz-adv-x="700" 
d="M45 553v33q0 21 23 24q54 13 93.5 36t62.5 52t36.5 69.5t18 80t4.5 92.5q0 38 -4.5 114t-4.5 120q0 144 66 232.5t197 88.5q37 0 53 -4q28 -6 28 -23v-32q0 -19 -14 -19q-67 0 -107 -11.5t-69 -45t-40 -92.5t-11 -156q1 -27 4.5 -95.5t3.5 -111.5q0 -262 -213 -338v-2
q77 -13 126.5 -62t68 -111t18.5 -138q0 -49 -4 -129t-4 -117q0 -97 11 -156t40 -92.5t69 -45t107 -11.5q14 0 14 -18v-33q0 -17 -28 -23q-16 -4 -53 -4q-131 0 -197 89t-66 233q0 50 3.5 137.5t3.5 130.5q0 50 -4.5 89.5t-18 79t-36.5 67.5t-62 48.5t-92 28.5q-23 3 -23 25z
" />
    <glyph glyph-name="bar" unicode="|" horiz-adv-x="479" 
d="M193 -377v1837q0 19 7.5 28t28.5 9h21q37 0 37 -37v-1837q0 -37 -37 -37h-21q-21 0 -28.5 9t-7.5 28z" />
    <glyph glyph-name="braceright" unicode="}" horiz-adv-x="700" 
d="M82 -315q0 18 14 18q67 0 107 11.5t69 45t40.5 92.5t11.5 156q0 37 -4.5 117t-4.5 129q0 76 18.5 138t68 111t126.5 62v2q-213 76 -213 338q0 42 4 110t5 97q0 97 -11.5 156t-40.5 92.5t-69 45t-107 11.5q-14 0 -14 19v32q0 17 29 23q16 4 53 4q131 0 196.5 -88.5
t65.5 -232.5q0 -44 -4 -120t-4 -114q0 -53 4.5 -92.5t18 -80t36.5 -69.5t62.5 -52t93.5 -36q22 -3 22 -24v-33q0 -22 -22 -25q-53 -8 -92 -28.5t-62 -48.5t-36.5 -67.5t-18 -79t-4.5 -89.5q0 -43 3 -130.5t3 -137.5q0 -144 -65.5 -233t-196.5 -89q-37 0 -53 4q-29 6 -29 23
v33z" />
    <glyph glyph-name="asciitilde" unicode="~" horiz-adv-x="1284" 
d="M135 553q92 125 248 125q55 0 127.5 -21t132.5 -45.5t131.5 -45.5t124.5 -21q108 0 188 86q19 19 39 2l21 -21q20 -20 6 -41q-92 -129 -258 -129q-65 0 -164 34t-193.5 68t-148.5 34q-108 0 -188 -86q-20 -20 -39 -3l-23 23q-19 19 -4 41z" />
    <glyph glyph-name="uni00A0" unicode="&#xa0;" horiz-adv-x="483" 
 />
    <glyph glyph-name="cent" unicode="&#xa2;" horiz-adv-x="1241" 
d="M295 465q0 216 113.5 344.5t300.5 146.5v146q0 19 7.5 28t28.5 9h27q37 0 37 -37v-144q110 -7 202.5 -48t92.5 -103q0 -15 -8 -39q-4 -8 -17 -2q-140 85 -280 94v-788q121 9 256 86q24 12 35 -8l16 -33q9 -22 -6 -35q-115 -93 -291 -107v-163q0 -37 -37 -37h-27
q-21 0 -28.5 9t-7.5 28v163q-195 17 -304.5 147.5t-109.5 342.5zM395 465q0 -170 87 -273t239 -118v786q-150 -14 -238 -118t-88 -277z" />
    <glyph glyph-name="currency" unicode="&#xa4;" horiz-adv-x="1312" 
d="M295 248v33q0 28 31 28h125v168h-125q-14 0 -22.5 8.5t-8.5 20.5v33q0 28 31 28h125v672q0 33 32 33h308q105 0 187.5 -22t135 -59t86.5 -89.5t48 -108t14 -119.5q0 -82 -28 -152.5t-82.5 -125.5t-144 -87t-204.5 -32h-248v-168h375q31 0 31 -28v-33q0 -12 -8.5 -20.5
t-22.5 -8.5h-375v-186q0 -15 -9 -24t-24 -9h-39q-32 0 -32 33v186h-125q-14 0 -22.5 8.5t-8.5 20.5zM555 567h240q177 0 268.5 81.5t91.5 230.5q0 147 -90.5 225t-269.5 78h-240v-615z" />
    <glyph glyph-name="section" unicode="&#xa7;" horiz-adv-x="1064" 
d="M129 1022q0 71 26.5 133.5t79 112.5t140 79t200.5 29q115 0 187 -30q19 -7 16 -31l-6 -41q-3 -17 -22 -12q-59 16 -109 16q-56 0 -95.5 -23t-56 -60t-20 -83t11.5 -92q19 -60 65 -129.5t96.5 -131.5t98.5 -128.5t79.5 -144t31.5 -154.5q0 -152 -112 -256.5t-308 -104.5
q-114 0 -207 37q-20 7 -16 31l6 41q1 9 6 14t10 4.5t9 -0.5q64 -22 125 -22q70 0 107.5 46.5t37.5 110.5q0 60 -21 119t-54.5 109t-74.5 101t-81.5 103.5t-74 106t-54.5 118.5t-21 132zM233 1036q0 -78 39 -159.5t94.5 -151.5t111.5 -140t95 -149t39 -153q0 -66 -25.5 -125
t-76.5 -92q110 10 174 88.5t64 185.5q0 74 -40 153.5t-96.5 149t-113 138.5t-96.5 148.5t-40 153.5q0 129 95 191q-106 -11 -165 -82.5t-59 -155.5z" />
    <glyph glyph-name="copyright" unicode="&#xa9;" horiz-adv-x="1591" 
d="M113 670q0 214 77.5 375t233.5 253.5t373 92.5q160 0 288.5 -51t214.5 -143.5t132.5 -220.5t48.5 -282q0 -214 -77.5 -375t-233.5 -253.5t-373 -92.5q-160 0 -288.5 51t-214.5 143.5t-132.5 220.5t-48.5 282zM199 680q0 -184 68.5 -323.5t205 -219.5t324.5 -80
q190 0 326.5 81t204 221.5t67.5 324.5t-68.5 323.5t-205 219.5t-324.5 80q-190 0 -326.5 -81t-204 -221.5t-67.5 -324.5zM465 676q0 200 103.5 304.5t275.5 104.5q78 0 141.5 -28.5t63.5 -79.5q0 -16 -7 -37q-3 -10 -12 -4q-88 57 -194 57q-125 0 -201 -77.5t-76 -225.5
q0 -145 65 -226t181 -81q107 0 199 57q23 14 34 -6l17 -26q10 -21 -6 -35q-113 -80 -261 -80q-144 0 -233.5 102t-89.5 281z" />
    <glyph glyph-name="guillemotleft" unicode="&#xab;" horiz-adv-x="985" 
d="M82 487q-19 22 0 41l321 363q21 21 43 4l35 -29q23 -20 2 -47l-286 -315l280 -311q22 -27 -2 -48l-29 -24q-22 -17 -43 4zM487 487q-19 22 0 41l267 301q21 21 43 5l32 -29q23 -20 2 -47l-229 -254l252 -275q21 -27 -2 -47l-29 -24q-22 -17 -43 4z" />
    <glyph glyph-name="logicalnot" unicode="&#xac;" horiz-adv-x="1230" 
d="M178 602v27q0 33 27 33h817q27 0 27 -33v-299q0 -27 -31 -27h-33q-31 0 -31 27v239h-749q-27 0 -27 33z" />
    <glyph glyph-name="uni00AD" unicode="&#xad;" horiz-adv-x="960" 
d="M164 494v32q0 33 26 33h580q27 0 27 -33v-32q0 -33 -27 -33h-580q-15 0 -20.5 7.5t-5.5 25.5z" />
    <glyph glyph-name="registered" unicode="&#xae;" horiz-adv-x="1077" 
d="M121 1042q0 118 48.5 214t145 155t224.5 59q192 0 304.5 -122.5t112.5 -307.5q0 -118 -48 -214t-144.5 -155t-224.5 -59q-192 0 -305 122.5t-113 307.5zM199 1042q0 -72 21.5 -135t62.5 -112.5t107 -78t149 -28.5t149 28.5t107 77.5t62.5 111.5t21.5 134.5
q0 151 -88.5 253t-251.5 102q-110 0 -189 -50t-115 -128t-36 -175zM389 846q0 -25 23 -25h16q23 0 23 25v158h106l88 -166q10 -17 27 -17h28q22 0 11 23l-93 170q47 18 69 52.5t22 76.5q0 53 -39.5 92t-118.5 39h-139q-23 0 -23 -25v-403zM451 1059v158h98q98 0 98 -78
q0 -80 -96 -80h-100z" />
    <glyph glyph-name="degree" unicode="&#xb0;" horiz-adv-x="802" 
d="M111 1198q0 56 16.5 107t50 93t90.5 66.5t131 24.5q145 0 219 -85.5t74 -205.5q0 -124 -74 -207.5t-219 -83.5q-142 0 -215 83.5t-73 207.5zM207 1198q0 -89 48.5 -150t143.5 -61q96 0 144.5 60.5t48.5 150.5q0 85 -48.5 147t-144.5 62q-65 0 -110 -32t-63.5 -77.5
t-18.5 -99.5z" />
    <glyph glyph-name="plusminus" unicode="&#xb1;" horiz-adv-x="1161" 
d="M168 143v25q0 33 27 33h772q26 0 26 -33v-25q0 -32 -26 -32h-772q-15 0 -21 7.5t-6 24.5zM168 602v25q0 32 27 32h340v365q0 27 32 27h25q33 0 33 -27v-365h342q26 0 26 -32v-25q0 -33 -26 -33h-342v-266q0 -27 -33 -27h-25q-32 0 -32 27v266h-340q-27 0 -27 33z" />
    <glyph glyph-name="paragraph" unicode="&#xb6;" horiz-adv-x="1075" 
d="M109 963q0 80 21.5 147t66.5 121t122.5 84.5t180.5 30.5h88q33 0 33 -27v-877q0 -340 -168 -432q59 7 106.5 32t78.5 57.5t53 80t33.5 89.5t18 97t8 90t1.5 81v782q0 27 32 27h35q33 0 33 -27v-787q0 -292 -116.5 -452t-321.5 -160q-125 0 -224 35q-23 8 -18 33l8 45
q6 25 29 16q55 -20 102 -20q101 0 155 96.5t54 284.5v172q-108 0 -189.5 31t-128.5 85t-70 120.5t-23 144.5zM207 963q3 -138 79.5 -213.5t233.5 -75.5v579q-307 0 -313 -290z" />
    <glyph glyph-name="guillemotright" unicode="&#xbb;" horiz-adv-x="1028" 
d="M174 229l252 275l-229 254q-21 27 2 47l32 29q22 16 43 -5l267 -301q19 -19 0 -41l-293 -325q-21 -21 -43 -4l-29 24q-23 20 -2 47zM545 819q-21 27 2 47l35 29q22 17 43 -4l321 -363q19 -19 0 -41l-321 -362q-21 -21 -43 -4l-29 24q-24 21 -2 48l280 311z" />
    <glyph glyph-name="onequarter" unicode="&#xbc;" horiz-adv-x="1898" 
d="M248 1128l14 -22q12 -19 33 -6l135 82v-557q0 -37 37 -37h22q37 0 37 37v620q0 37 -37 37h-24q-23 0 -45 -14l-170 -107q-16 -11 -2 -33zM436 51l848 1211q18 25 41 10l35 -23q24 -17 8 -41l-850 -1210q-18 -25 -41 -10l-33 22q-24 17 -8 41zM1114 195q0 -17 6.5 -23
t22.5 -6h354v-131q0 -37 37 -37h20q37 0 37 37v131h82q16 0 22.5 6t6.5 23v20q0 29 -29 29h-82v461q0 18 -8 27t-29 9h-59q-39 0 -65 -39l-289 -407q-27 -39 -27 -72v-28zM1196 244l301 426v-426h-301z" />
    <glyph glyph-name="onehalf" unicode="&#xbd;" horiz-adv-x="1806" 
d="M248 1128l14 -22q12 -19 33 -6l135 82v-557q0 -37 37 -37h22q37 0 37 37v620q0 37 -37 37h-24q-23 0 -45 -14l-170 -107q-16 -11 -2 -33zM436 51l848 1211q18 25 41 10l35 -23q24 -17 8 -41l-850 -1210q-18 -25 -41 -10l-33 22q-24 17 -8 41zM1165 33q0 -33 31 -33h426
q16 0 23.5 7t7.5 26v20q0 33 -31 33h-362q8 46 51 87.5t97.5 75.5t108.5 72.5t91 96t37 127.5q0 113 -69.5 165t-180.5 52q-41 0 -86.5 -9.5t-84 -35t-38.5 -60.5q0 -17 12 -32q10 -10 21 -4q85 53 180 53q66 0 107.5 -30.5t41.5 -98.5q0 -45 -21 -83t-55 -65.5t-74.5 -53.5
t-81.5 -54t-75 -59.5t-55 -77t-21 -101.5v-18z" />
    <glyph glyph-name="multiply" unicode="&#xd7;" horiz-adv-x="993" 
d="M152 305q-13 16 4 33l272 278l-270 281q-17 17 -4 33l32 35q16 17 31 2l270 -289l277 285q14 15 31 -2l34 -37q13 -16 -4 -33l-268 -270l277 -285q17 -17 4 -33l-33 -35q-17 -16 -31 -2l-285 293l-276 -293q-16 -16 -31 2z" />
    <glyph glyph-name="divide" unicode="&#xf7;" horiz-adv-x="1163" 
d="M145 604v25q0 33 27 33h817q27 0 27 -33v-25q0 -33 -27 -33h-817q-27 0 -27 33zM492 215q0 46 28.5 70t63.5 24q33 0 62.5 -21t29.5 -61q0 -39 -26 -66.5t-66 -27.5q-34 0 -63 21.5t-29 60.5zM492 983q0 46 28.5 70t63.5 24q33 0 62.5 -21t29.5 -61q0 -39 -26 -66.5
t-66 -27.5q-34 0 -63 21.5t-29 60.5z" />
    <glyph glyph-name="Delta" unicode="&#x394;" horiz-adv-x="1245" 
d="M72.5 21q-5.5 21 7.5 49l541 1218q11 21 20 21h12q11 0 21 -21l540 -1218q13 -28 7.5 -49t-27.5 -21h-1094q-22 0 -27.5 21zM199 94h897l-408 924q-16 43 -41 119q-23 -76 -41 -119z" />
    <glyph glyph-name="afii10023" unicode="&#x401;" horiz-adv-x="1077" 
d="M207 33v1280q0 15 9 24t24 9h721q32 0 32 -33v-37q0 -33 -32 -33h-648v-506h531q33 0 33 -32v-37q0 -15 -9 -24t-24 -9h-531v-533h648q32 0 32 -32v-37q0 -33 -32 -33h-721q-15 0 -24 9t-9 24zM295 1544q0 39 23.5 63.5t62.5 24.5q41 0 68.5 -25t27.5 -63
q0 -39 -27 -63.5t-69 -24.5q-40 0 -63 24t-23 64zM737 1544q0 39 24.5 63.5t65.5 24.5q40 0 67.5 -25t27.5 -63q0 -39 -27 -63.5t-68 -24.5t-65.5 24t-24.5 64z" />
    <glyph glyph-name="afii10017" unicode="&#x410;" horiz-adv-x="1183" 
d="M1 10q-5 10 1 25l553 1317q10 22 31 22h16q21 0 31 -22l549 -1317q6 -15 0.5 -25t-17.5 -10h-47q-22 0 -34 5t-19 24l-127 311h-692l-127 -311q-8 -19 -19.5 -24t-33.5 -5h-48q-12 0 -17 10zM289 442h606l-238 584l-63 172l-64 -172z" />
    <glyph glyph-name="afii10018" unicode="&#x411;" horiz-adv-x="1173" 
d="M207 33v1284q0 13 8.5 21t22.5 8h720q14 0 22.5 -8t8.5 -21v-45q0 -13 -8.5 -21t-22.5 -8h-645v-459q167 17 250 17q506 0 506 -383q0 -188 -123.5 -303t-365.5 -115h-340q-15 0 -24 9t-9 24zM313 102h256q185 0 289.5 83t104.5 235q0 78 -31 134t-86.5 87t-122.5 45
t-150 14q-97 0 -260 -14v-584z" />
    <glyph glyph-name="afii10019" unicode="&#x412;" horiz-adv-x="1216" 
d="M207 33v1280q0 15 9 24t24 9h372q205 0 317.5 -91.5t112.5 -242.5q0 -65 -21 -124.5t-72 -112.5t-126 -77v-6q74 -13 130.5 -46.5t88.5 -80t48 -97t16 -103.5q0 -172 -126 -268.5t-364 -96.5h-376q-15 0 -24 9t-9 24zM313 102h342q166 0 251 75t85 198t-80 190.5
t-237 67.5h-361v-531zM313 731h312q141 0 224 79.5t83 193.5q0 112 -81 176.5t-243 64.5h-295v-514z" />
    <glyph glyph-name="afii10020" unicode="&#x413;" horiz-adv-x="950" 
d="M207 33v1280q0 15 9 24t24 9h671q14 0 22.5 -8t8.5 -21v-45q0 -13 -8.5 -21t-22.5 -8h-598v-1210q0 -33 -32 -33h-41q-15 0 -24 9t-9 24z" />
    <glyph glyph-name="afii10021" unicode="&#x414;" horiz-adv-x="1398" 
d="M27 70q0 32 32 32h107q126 173 170 440t47 771q0 15 9 24t24 9h723q32 0 32 -33v-1211h121q33 0 33 -32v-387q0 -15 -9 -24t-24 -9h-39q-32 0 -32 33v317h-1090v-317q0 -15 -9 -24t-24 -9h-39q-32 0 -32 33v387zM295 102h770v1141h-580q0 -142 -2.5 -239.5t-13 -233
t-30 -239t-56 -218.5t-88.5 -211z" />
    <glyph glyph-name="afii10022" unicode="&#x415;" horiz-adv-x="1077" 
d="M207 33v1280q0 15 9 24t24 9h721q32 0 32 -33v-37q0 -33 -32 -33h-648v-506h531q33 0 33 -32v-37q0 -15 -9 -24t-24 -9h-531v-533h648q32 0 32 -32v-37q0 -33 -32 -33h-721q-15 0 -24 9t-9 24z" />
    <glyph glyph-name="afii10024" unicode="&#x416;" horiz-adv-x="1792" 
d="M20.5 8.5q-4.5 8.5 4.5 20.5l442 667l-385 621q-8 12 -3.5 20.5t21.5 8.5h56q25 0 41 -21l364 -594h281v582q0 33 32 33h41q15 0 24 -9t9 -24v-582h281l364 594q16 21 41 21h56q17 0 21.5 -8.5t-3.5 -20.5l-385 -621l442 -667q9 -12 4.5 -20.5t-18.5 -8.5h-61
q-24 0 -38.5 6t-27.5 25l-358 557q-31 47 -76 47h-242v-602q0 -15 -9 -24t-24 -9h-41q-32 0 -32 33v602h-242q-45 0 -76 -47l-358 -557q-13 -19 -27.5 -25t-38.5 -6h-61q-14 0 -18.5 8.5z" />
    <glyph glyph-name="afii10025" unicode="&#x417;" horiz-adv-x="1013" 
d="M37 127l20 47q9 22 29 10q110 -59 197 -83.5t182 -24.5q174 0 257 80t83 204q0 144 -97.5 205.5t-297.5 61.5h-97q-30 0 -30 28v43q0 29 30 29h113q96 0 166 23t108.5 63.5t56 88t17.5 102.5q0 75 -26 129.5t-71.5 84t-98.5 43t-115 13.5q-212 0 -336 -96q-10 -6 -16 6
q-9 21 -9 37q0 41 35.5 72t91.5 48t115.5 25t118.5 8q87 0 160 -18.5t134 -57t95.5 -107t34.5 -161.5q0 -113 -62.5 -208t-183.5 -134q74 -14 129.5 -47t87.5 -78.5t47 -96.5t15 -108q0 -184 -120.5 -284.5t-326.5 -100.5q-218 0 -422 115q-23 14 -14 39z" />
    <glyph glyph-name="afii10026" unicode="&#x418;" horiz-adv-x="1456" 
d="M207 33v1280q0 15 9 24t24 9h41q32 0 32 -33v-910q0 -128 -16 -272l125 197l713 995q17 23 39 23h40q15 0 24 -9t9 -24v-1280q0 -15 -9 -24t-24 -9h-40q-15 0 -24 9t-9 24v909q5 122 22 272l-129 -196l-708 -995q-17 -23 -39 -23h-47q-15 0 -24 9t-9 24z" />
    <glyph glyph-name="afii10027" unicode="&#x419;" horiz-adv-x="1454" 
d="M207 33v1280q0 15 9 24t24 9h41q32 0 32 -33v-910q0 -128 -16 -272l125 197l711 995q17 23 38 23h41q15 0 24 -9t9 -24v-1280q0 -15 -9 -24t-24 -9h-41q-32 0 -32 33v909q5 122 22 272l-129 -196l-706 -995q-17 -23 -39 -23h-47q-15 0 -24 9t-9 24zM401 1585q-9 25 11 41
l39 25q22 12 34 -6q33 -64 98 -113t150 -49t150 49t98 113q13 19 35 6l39 -25q19 -15 10 -41q-29 -65 -85.5 -111.5t-119.5 -67t-127 -20.5t-127 20.5t-119.5 67t-85.5 111.5z" />
    <glyph glyph-name="afii10028" unicode="&#x41a;" horiz-adv-x="1187" 
d="M207 33v1280q0 15 9 24t24 9h41q32 0 32 -33v-582h285l393 594q16 21 41 21h55q17 0 22 -8.5t-3 -20.5l-414 -621l471 -667q9 -12 4.5 -20.5t-18.5 -8.5h-62q-24 0 -38 6t-27 25l-387 557q-31 47 -76 47h-246v-602q0 -33 -32 -33h-41q-15 0 -24 9t-9 24z" />
    <glyph glyph-name="afii10029" unicode="&#x41b;" horiz-adv-x="1335" 
d="M23 35l8 47q3 20 24 16q39 -5 70.5 7.5t57 47.5t44.5 84.5t34.5 128t26.5 168t19.5 215t14 258t10.5 306.5q0 15 9 24t24 9h729q32 0 32 -33v-1280q0 -33 -32 -33h-41q-15 0 -24 9t-9 24v1210h-584q-4 -217 -13 -382.5t-25 -311.5t-40.5 -246t-60 -173t-84 -107.5
t-111.5 -34.5q-35 0 -65 12q-20 9 -14 35z" />
    <glyph glyph-name="afii10030" unicode="&#x41c;" horiz-adv-x="1724" 
d="M207 33l55 1280q0 15 9 24t24 9h86q34 0 47 -33l440 -1200l437 1200q13 33 47 33h92q15 0 24 -9t9 -24l55 -1280q0 -15 -9 -24t-24 -9h-39q-15 0 -24 9t-9 24l-38 938l-9 270l-96 -270l-346 -946q-13 -21 -31 -21h-78q-17 0 -30 21l-346 946l-95 270l-8 -270l-39 -938
q0 -33 -32 -33h-39q-15 0 -24 9t-9 24z" />
    <glyph glyph-name="afii10031" unicode="&#x41d;" horiz-adv-x="1449" 
d="M207 33v1280q0 15 9 24t24 9h41q32 0 32 -33v-582h822v582q0 33 32 33h41q15 0 24 -9t9 -24v-1280q0 -15 -9 -24t-24 -9h-41q-32 0 -32 33v596h-822v-596q0 -33 -32 -33h-41q-15 0 -24 9t-9 24z" />
    <glyph glyph-name="afii10032" unicode="&#x41e;" horiz-adv-x="1519" 
d="M98 678q0 132 41 254t120 222t208.5 160t292.5 60q160 0 288.5 -58.5t208.5 -158t122 -225t42 -264.5q0 -105 -25 -204.5t-78.5 -189.5t-129.5 -157t-186.5 -106.5t-241.5 -39.5q-129 0 -238 38.5t-186.5 105t-131.5 156.5t-80 193t-26 214zM205 678q0 -90 22 -176.5
t68 -164t110.5 -136t156 -93t198.5 -34.5t198.5 33t156 89.5t110.5 132.5t68 162.5t22 178.5q0 90 -22 176.5t-68 164t-110.5 136t-156 93t-198.5 34.5t-198.5 -33t-156 -89.5t-110.5 -132.5t-68 -162.5t-22 -178.5z" />
    <glyph glyph-name="afii10033" unicode="&#x41f;" horiz-adv-x="1429" 
d="M207 33v1280q0 15 9 24t24 9h948q15 0 24 -9t9 -24v-1280q0 -15 -9 -24t-24 -9h-41q-15 0 -24 9t-9 24v1210h-801v-1210q0 -33 -32 -33h-41q-15 0 -24 9t-9 24z" />
    <glyph glyph-name="afii10034" unicode="&#x420;" horiz-adv-x="1083" 
d="M207 33v1280q0 15 9 24t24 9h311q260 0 390 -111.5t130 -306.5q0 -93 -30.5 -169t-94.5 -137.5t-175 -97t-261 -37.5q-86 0 -197 9v-463q0 -33 -32 -33h-41q-15 0 -24 9t-9 24zM313 600q77 -14 176 -14q246 0 361 92t115 248q0 143 -97.5 231t-306.5 88h-248v-645z" />
    <glyph glyph-name="afii10035" unicode="&#x421;" horiz-adv-x="1208" 
d="M98 680q0 317 179 505.5t475 188.5q90 0 185 -22.5t162.5 -64.5t67.5 -89q0 -25 -8 -41q-5 -8 -18 -2q-203 119 -396 119q-112 0 -208.5 -37.5t-171 -109.5t-117.5 -188t-43 -263q0 -123 30.5 -224.5t81 -170t119 -116t142.5 -68.5t153 -21q207 0 395 117q19 12 29 -9
l21 -45q8 -19 -9 -33q-179 -133 -440 -133q-128 0 -240.5 44.5t-200 129.5t-138 222.5t-50.5 310.5z" />
    <glyph glyph-name="afii10036" unicode="&#x422;" horiz-adv-x="999" 
d="M-2 1272v45q0 13 8.5 21t22.5 8h942q30 0 30 -29v-45q0 -29 -30 -29h-418v-1210q0 -15 -9 -24t-24 -9h-41q-15 0 -24 9t-9 24v1210h-417q-14 0 -22.5 8t-8.5 21z" />
    <glyph glyph-name="afii10037" unicode="&#x423;" horiz-adv-x="1077" 
d="M41 1313q-6 14 1 23.5t28 9.5h47q31 0 43 -27l389 -850l381 850q12 27 37 27h55q36 0 20 -33l-419 -934q-27 -62 -43 -97.5t-37.5 -80.5t-36.5 -69t-35.5 -52.5t-38.5 -42t-41.5 -27t-49 -18t-56.5 -4.5q-67 0 -115 26q-18 14 -12 39l10 39q10 29 33 21q44 -15 88 -15
q68 0 116.5 66.5t88.5 185.5z" />
    <glyph glyph-name="afii10038" unicode="&#x424;" horiz-adv-x="1531" 
d="M100 739q0 87 21 164t68.5 145t117.5 117.5t174 78.5t232 30v133q0 33 32 33h41q15 0 24 -9t9 -24v-133q131 -1 236 -31t174.5 -80t116 -119.5t66.5 -147.5t20 -167q0 -87 -21 -164t-68.5 -145t-117.5 -117t-173.5 -78t-232.5 -30v-162q0 -15 -9 -24t-24 -9h-41
q-32 0 -32 33v162q-163 1 -284.5 45.5t-191.5 121.5t-103.5 171t-33.5 206zM207 735q0 -204 129 -321.5t377 -120.5v883q-248 -3 -377 -120.5t-129 -320.5zM819 293q248 3 377 120t129 320q0 204 -129 322t-377 121v-883z" />
    <glyph glyph-name="afii10039" unicode="&#x425;" horiz-adv-x="1114" 
d="M59 9.5q-5 9.5 2 21.5l431 671l-396 613q-7 12 -2 21.5t17 9.5h63q30 0 47 -27l350 -543l334 543q18 27 47 27h58q12 0 16.5 -9.5t-2.5 -21.5l-393 -629l424 -655q7 -12 2 -21.5t-17 -9.5h-65q-30 0 -47 27l-379 587l-367 -587q-18 -27 -47 -27h-59q-12 0 -17 9.5z" />
    <glyph glyph-name="afii10040" unicode="&#x426;" horiz-adv-x="1417" 
d="M207 33v1280q0 15 9 24t24 9h41q32 0 32 -33v-1211h795v1211q0 15 9 24t24 9h41q32 0 32 -33v-1211h97q32 0 32 -32v-387q0 -33 -32 -33h-39q-15 0 -24 9t-9 24v317h-999q-15 0 -24 9t-9 24z" />
    <glyph glyph-name="afii10041" unicode="&#x427;" horiz-adv-x="1216" 
d="M102 846v467q0 15 9 24t24 9h41q15 0 24 -9t9 -24v-402q0 -195 62 -270.5t202 -75.5q107 0 230 37t198 86v625q0 15 9 24t24 9h41q15 0 24 -9t9 -24v-1280q0 -15 -9 -24t-24 -9h-41q-15 0 -24 9t-9 24v538q-92 -49 -212.5 -81.5t-229.5 -32.5q-79 0 -142 21t-112 65.5
t-76 121t-27 181.5z" />
    <glyph glyph-name="afii10042" unicode="&#x428;" horiz-adv-x="1837" 
d="M207 33v1280q0 15 9 24t24 9h41q32 0 32 -33v-1211h551v1211q0 15 9 24t24 9h41q15 0 24 -9t9 -24v-1211h551v1211q0 33 32 33h41q15 0 24 -9t9 -24v-1280q0 -15 -9 -24t-24 -9h-1355q-15 0 -24 9t-9 24z" />
    <glyph glyph-name="afii10043" unicode="&#x429;" horiz-adv-x="1828" 
d="M207 33v1280q0 15 9 24t24 9h41q32 0 32 -33v-1211h551v1211q0 15 9 24t24 9h41q15 0 24 -9t9 -24v-1211h551v1211q0 33 32 33h41q15 0 24 -9t9 -24v-1211h94q33 0 33 -32v-387q0 -15 -9 -24t-24 -9h-39q-32 0 -32 33v317h-1411q-15 0 -24 9t-9 24z" />
    <glyph glyph-name="afii10044" unicode="&#x42a;" horiz-adv-x="1298" 
d="M8 1280v33q0 15 9 24t24 9h403q15 0 24 -9t9 -24v-482q93 13 219 13q82 0 152.5 -10.5t138.5 -38.5t116 -71.5t77.5 -114.5t29.5 -163q0 -211 -129.5 -328.5t-357.5 -117.5h-320q-32 0 -32 33v1214h-330q-15 0 -24 9t-9 24zM477 102h242q182 0 283.5 91t101.5 249
q0 83 -34 143.5t-92.5 93t-126 47.5t-146.5 15q-130 0 -228 -12v-627z" />
    <glyph glyph-name="afii10045" unicode="&#x42b;" horiz-adv-x="1552" 
d="M207 33v1280q0 15 9 24t24 9h41q32 0 32 -33v-482q93 13 219 13q82 0 152.5 -10.5t139 -38.5t116.5 -71.5t77.5 -114.5t29.5 -163q0 -211 -130 -328.5t-358 -117.5h-319q-15 0 -24 9t-9 24zM313 102h242q182 0 283.5 91t101.5 249q0 83 -34 143.5t-92.5 93t-126 47.5
t-146.5 15q-130 0 -228 -12v-627zM1237 33v1280q0 15 9 24t24 9h41q32 0 32 -33v-1280q0 -33 -32 -33h-41q-15 0 -24 9t-9 24z" />
    <glyph glyph-name="afii10046" unicode="&#x42c;" horiz-adv-x="1187" 
d="M207 33v1280q0 15 9 24t24 9h41q32 0 32 -33v-482q93 13 219 13q82 0 152.5 -10.5t139 -38.5t116.5 -71.5t77.5 -114.5t29.5 -163q0 -211 -130 -328.5t-358 -117.5h-319q-15 0 -24 9t-9 24zM313 102h242q182 0 283.5 91t101.5 249q0 83 -34 143.5t-92.5 93t-126 47.5
t-146.5 15q-130 0 -228 -12v-627z" />
    <glyph glyph-name="afii10047" unicode="&#x42d;" horiz-adv-x="1183" 
d="M66 115l18 41q8 16 27 8q169 -88 348 -88q220 0 362 145.5t154 421.5h-668q-14 0 -22.5 8t-8.5 21v45q0 28 31 28h668q-7 145 -51 250t-118.5 164.5t-165.5 87t-204 27.5q-163 0 -327 -82q-10 -3 -15 4q-8 13 -8 33q0 43 45.5 74t112.5 45t119.5 20t89.5 6q143 0 257 -41
t199 -125t130.5 -221t45.5 -319q0 -137 -32.5 -252t-89.5 -196t-134.5 -137t-166.5 -83t-187 -27q-256 0 -405 109q-14 11 -4 33z" />
    <glyph glyph-name="afii10048" unicode="&#x42e;" horiz-adv-x="2007" 
d="M207 33v1280q0 15 9 24t24 9h41q32 0 32 -33v-582h301q6 100 34 192.5t82 175t127.5 143.5t177 96.5t225.5 35.5q127 0 234 -38.5t182.5 -105t128.5 -156.5t78.5 -192.5t25.5 -213.5q0 -105 -24.5 -204.5t-77 -189.5t-127.5 -157t-183.5 -106.5t-236.5 -39.5
q-121 0 -224.5 35.5t-178 96.5t-128 145t-82 180t-33.5 201h-301v-596q0 -33 -32 -33h-41q-15 0 -24 9t-9 24zM719 678q0 -90 21.5 -176.5t66.5 -164t107.5 -136t152 -93t193.5 -34.5q130 0 235.5 50t171 134.5t100.5 190t35 221.5q0 114 -35 220t-100.5 193t-171 139
t-235.5 52q-104 0 -193 -33t-152.5 -89.5t-108 -132.5t-66 -162.5t-21.5 -178.5z" />
    <glyph glyph-name="afii10049" unicode="&#x42f;" horiz-adv-x="1210" 
d="M90 9q-4 9 2 20l318 553q-281 95 -281 376q0 186 138 287t386 101h318q15 0 24 -9t9 -24v-1280q0 -15 -9 -24t-24 -9h-41q-33 0 -33 29v528h-332q-55 -3 -78 -43l-266 -483q-11 -20 -25 -25.5t-40 -5.5h-50q-12 0 -16 9zM236 952q0 -136 101 -217.5t306 -81.5h254v594
h-244q-67 0 -124.5 -8t-113 -29t-94 -53.5t-62 -84.5t-23.5 -120z" />
    <glyph glyph-name="afii10065" unicode="&#x430;" horiz-adv-x="1013" 
d="M111 252q0 75 26 134.5t69 96.5t102 61.5t120.5 34t130.5 9.5q93 0 244 -31v143q0 58 -22.5 100.5t-61.5 66.5t-86 35t-103 11q-91 0 -177 -22.5t-142 -59.5q-15 -9 -23 3q-14 22 -14 45q2 36 41.5 64t98 42.5t114 21.5t102.5 7q201 0 287 -86t86 -240v-651
q0 -37 -37 -37h-26q-30 0 -33 37l-8 106q-66 -80 -171 -125t-206 -45q-86 0 -149 24t-97 65.5t-49.5 88.5t-15.5 101zM213 256q0 -76 49.5 -131t161.5 -55q115 0 225 65t154 150v172q-98 39 -246 39q-68 0 -127 -12.5t-109 -39.5t-79 -75t-29 -113z" />
    <glyph glyph-name="afii10066" unicode="&#x431;" horiz-adv-x="1140" 
d="M156 580q0 120 14.5 217t48 183t87.5 151t133.5 115t185.5 81q20 6 87 24t92 26.5t65 28t67 42.5q10 6 16 0q19 -25 19 -51q0 -22 -9.5 -40.5t-29 -33t-40.5 -25.5t-54 -22t-58.5 -18t-65.5 -17.5t-63 -17.5q-85 -25 -148 -61t-104.5 -79.5t-71 -105.5t-46 -126
t-29.5 -153h2q57 134 159.5 197t231.5 63q103 0 187 -39.5t137.5 -105.5t82.5 -148.5t29 -172.5q0 -237 -124 -378t-336 -141q-219 0 -342 148t-123 459zM268 455q1 -89 29 -162t76.5 -120.5t112.5 -73t137 -25.5q162 0 258 109.5t96 283.5q0 176 -89.5 284.5t-260.5 108.5
q-155 0 -257 -113.5t-102 -291.5z" />
    <glyph glyph-name="afii10067" unicode="&#x432;" horiz-adv-x="974" 
d="M178 37v917q0 37 37 37h344q161 0 242.5 -69t81.5 -181q0 -77 -43 -135t-129 -82v-4q213 -43 213 -237q0 -123 -83.5 -203t-238.5 -80h-387q-37 0 -37 37zM279 96h307q116 0 174.5 51.5t58.5 135.5q0 83 -55 130.5t-156 47.5h-329v-365zM279 555h301q86 0 143 50t57 124
q0 166 -221 166h-280v-340z" />
    <glyph glyph-name="afii10068" unicode="&#x433;" horiz-adv-x="749" 
d="M178 37v919q0 35 37 35h547q37 0 37 -35v-24q0 -22 -9 -30.5t-28 -8.5h-483v-856q0 -37 -37 -37h-27q-37 0 -37 37z" />
    <glyph glyph-name="afii10069" unicode="&#x434;" horiz-adv-x="1144" 
d="M27 57q0 19 7.5 28t28.5 9h70q60 60 100 153.5t58 213.5t23.5 234t2.5 259q0 37 37 37h584q37 0 37 -37v-860h94q37 0 37 -37v-327q0 -37 -37 -37h-25q-21 0 -28.5 9t-7.5 28v270h-883v-270q0 -37 -37 -37h-25q-21 0 -28.5 9t-7.5 28v327zM254 94h620v799h-460
q0 -130 -5.5 -230t-21 -209.5t-49 -200.5t-84.5 -159z" />
    <glyph glyph-name="afii10070" unicode="&#x435;" horiz-adv-x="1064" 
d="M123 492q0 237 122 380t351 146q192 0 298.5 -109.5t106.5 -290.5q0 -78 -20 -131q-6 -12 -20 -12h-734q0 -100 30.5 -178t84.5 -125.5t122.5 -71.5t147.5 -24q132 0 283 69q28 13 39 -12l14 -31q12 -27 -6 -39q-144 -90 -350 -90q-97 0 -180 31.5t-148.5 93.5
t-103 163.5t-37.5 230.5zM223 571h682v62q0 131 -87.5 209t-219.5 78q-97 0 -175 -35.5t-132.5 -115.5t-67.5 -198z" />
    <glyph glyph-name="afii10072" unicode="&#x436;" horiz-adv-x="1435" 
d="M51 16q-4 7 2 13q31 24 51 49t50 72l221 372l-277 439q-8 13 -3.5 21.5t16.5 8.5h51q32 0 51 -24l254 -408h231v395q0 37 37 37h27q37 0 37 -37v-395h231l254 408q19 24 51 24h51q12 0 16.5 -8.5t-3.5 -21.5l-277 -439l221 -372q30 -47 50 -72t51 -49q6 -6 2 -13
q-11 -17 -25 -21.5t-37 -4.5q-40 0 -77 30.5t-95 129.5l-182 321h-231v-434q0 -37 -37 -37h-27q-37 0 -37 37v434h-231l-182 -321q-58 -99 -95 -129.5t-77 -30.5q-23 0 -37 4.5t-25 21.5z" />
    <glyph glyph-name="afii10073" unicode="&#x437;" horiz-adv-x="854" 
d="M70 94l16 37q9 21 35 10q139 -71 295 -71q123 0 193.5 57.5t70.5 153.5q0 174 -283 174h-116q-18 0 -26.5 7.5t-8.5 26.5v23q0 33 35 33h127q243 0 243 198q0 51 -19 86.5t-53 54t-71 26.5t-82 8q-162 0 -307 -87q-10 -5 -15 5q-10 20 -10 41q0 46 56 79.5t129 47.5
t147 14q171 0 249.5 -72.5t78.5 -187.5q0 -87 -46 -150t-120 -92q100 -23 148 -89.5t48 -154.5q0 -134 -96.5 -216.5t-286.5 -82.5q-170 0 -319 84q-21 12 -12 37z" />
    <glyph glyph-name="afii10074" unicode="&#x438;" horiz-adv-x="1146" 
d="M178 37v917q0 37 37 37h27q37 0 37 -37v-694l-13 -149l96 149l537 701q23 30 47 30h45q37 0 37 -37v-917q0 -37 -37 -37h-26q-37 0 -37 37v696l12 150l-96 -150l-537 -702q-24 -31 -49 -31h-43q-37 0 -37 37z" />
    <glyph glyph-name="afii10075" unicode="&#x439;" horiz-adv-x="1146" 
d="M178 37v917q0 37 37 37h27q37 0 37 -37v-694l-13 -149l96 149l537 701q23 30 47 30h45q37 0 37 -37v-917q0 -37 -37 -37h-26q-37 0 -37 37v696l12 150l-96 -150l-537 -702q-24 -31 -49 -31h-43q-37 0 -37 37zM254 1243q-9 26 10 41l39 25q22 13 33 -6q37 -67 96.5 -115
t142.5 -45q83 -3 143.5 45t96.5 115q11 19 33 6l39 -25q19 -15 10 -41q-49 -94 -137 -144t-185 -50t-184.5 50t-136.5 144z" />
    <glyph glyph-name="afii10076" unicode="&#x43a;" horiz-adv-x="952" 
d="M176 37v917q0 37 37 37h27q21 0 28.5 -9t7.5 -28v-395h232l301 408q19 24 51 24h53q12 0 16.5 -8.5t-3.5 -21.5l-326 -439l256 -372q61 -85 113 -119q5 -3 5.5 -8.5t-3.5 -10.5q-20 -22 -68 -22q-13 0 -25 2t-23 8t-19.5 10.5t-20 16t-18 18.5t-18 23t-17 24t-19.5 28.5
t-20 29.5l-209 315h-238v-428q0 -19 -7.5 -28t-28.5 -9h-27q-37 0 -37 37z" />
    <glyph glyph-name="afii10077" unicode="&#x43b;" horiz-adv-x="1046" 
d="M29 55q-5 18 12 21q37 -3 67 9.5t52.5 44t39.5 72t28 103t18.5 126.5t11 154t5 173.5t1.5 195.5q0 37 37 37h590q37 0 37 -37v-917q0 -37 -37 -37h-27q-37 0 -37 37v856h-460q-6 -478 -62.5 -690.5t-183.5 -212.5q-73 0 -92 65z" />
    <glyph glyph-name="afii10078" unicode="&#x43c;" horiz-adv-x="1325" 
d="M156 37l37 917q0 19 7.5 28t28.5 9h80q34 0 47 -33l330 -866l326 866q13 33 47 33h86q37 0 37 -37l37 -917q0 -37 -37 -37h-25q-20 0 -27.5 9t-9.5 28l-26 631l-11 219l-82 -211l-247 -641q-12 -27 -33 -27h-72q-21 0 -33 27l-247 641l-88 211v-219l-27 -631
q0 -37 -37 -37h-24q-37 0 -37 37z" />
    <glyph glyph-name="afii10079" unicode="&#x43d;" horiz-adv-x="1140" 
d="M178 37v917q0 37 37 37h27q37 0 37 -37v-395h643v395q0 19 7.5 28t28.5 9h27q37 0 37 -37v-917q0 -37 -37 -37h-27q-21 0 -28.5 9t-7.5 28v424h-643v-424q0 -37 -37 -37h-27q-37 0 -37 37z" />
    <glyph glyph-name="afii10080" unicode="&#x43e;" horiz-adv-x="1177" 
d="M123 496q0 236 136 379t362 143q229 0 363 -142t134 -380q0 -237 -136 -380t-361 -143q-229 0 -363.5 142.5t-134.5 380.5zM227 496q0 -194 105 -308t289 -114t288.5 114.5t104.5 307.5q0 194 -104.5 308t-288.5 114t-289 -114.5t-105 -307.5z" />
    <glyph glyph-name="afii10081" unicode="&#x43f;" horiz-adv-x="1130" 
d="M178 37v917q0 37 37 37h760q37 0 37 -37v-917q0 -37 -37 -37h-27q-37 0 -37 37v856h-632v-856q0 -37 -37 -37h-27q-37 0 -37 37z" />
    <glyph glyph-name="afii10082" unicode="&#x440;" horiz-adv-x="1159" 
d="M176 967q-4 11 4 16q18 12 47 12q36 0 50.5 -29.5t17.5 -86.5q155 139 377 139q193 0 310.5 -134t117.5 -368q0 -253 -146.5 -398t-375.5 -145q-66 0 -143.5 17.5t-133.5 46.5v-529q0 -18 -8 -27t-29 -9h-26q-21 0 -29 9t-8 27v1268q0 126 -25 191zM301 145
q114 -71 266 -71q210 0 319 127.5t109 337.5q0 168 -88.5 275.5t-247.5 107.5q-94 0 -192 -39t-166 -107v-631z" />
    <glyph glyph-name="afii10083" unicode="&#x441;" horiz-adv-x="956" 
d="M123 496q0 246 137 384t358 138q75 0 150.5 -17.5t131.5 -56t56 -88.5q0 -19 -10 -39q-4 -8 -16 -2q-85 53 -158 78t-158 25q-174 0 -280.5 -113.5t-106.5 -308.5q0 -196 107.5 -309t292.5 -113q131 0 278 86q24 13 37 -8l16 -27q13 -21 -6 -37q-144 -115 -342 -115
q-229 0 -358 142t-129 381z" />
    <glyph glyph-name="afii10084" unicode="&#x442;" horiz-adv-x="833" 
d="M18 932v24q0 35 37 35h776q37 0 37 -35v-24q0 -22 -9 -30.5t-28 -8.5h-337v-856q0 -37 -37 -37h-27q-37 0 -37 37v856h-338q-19 0 -28 8.5t-9 30.5z" />
    <glyph glyph-name="afii10085" unicode="&#x443;" horiz-adv-x="958" 
d="M94 958q-4 14 1.5 23.5t15.5 9.5h59q35 0 45 -26l279 -885q7 -23 24 -23h17l323 908q10 26 45 26h45q10 0 15.5 -9.5t1.5 -23.5l-390 -1089q-26 -72 -45 -119t-50.5 -106.5t-63 -94.5t-77 -59.5t-97.5 -24.5q-50 0 -85 25t-34 86q0 7 5 10t11 0q31 -16 74 -16
q82 0 141 61.5t92 163.5l74 205h-67q-40 0 -52 31z" />
    <glyph glyph-name="afii10086" unicode="&#x444;" horiz-adv-x="1466" 
d="M119 487q0 234 142.5 378.5t428.5 150.5v418q0 18 8 27t29 9h27q21 0 29 -9t8 -27v-418q148 -2 259.5 -42t178 -110.5t99 -161t32.5 -200.5q0 -113 -33.5 -206.5t-101.5 -165.5t-178.5 -113t-255.5 -44v-465q0 -18 -8 -27t-29 -9h-27q-21 0 -29 9t-8 27v465
q-149 2 -260.5 42t-178.5 110.5t-99.5 161t-32.5 200.5zM223 487q0 -106 36 -187t100.5 -130.5t147.5 -75.5t183 -28v858q-121 -3 -212.5 -38t-146 -95t-81.5 -136t-27 -168zM791 66q235 6 349.5 125.5t114.5 310.5q0 105 -36 186t-100 131t-146.5 76t-181.5 29v-858z" />
    <glyph glyph-name="afii10087" unicode="&#x445;" horiz-adv-x="903" 
d="M78.5 11q-5.5 11 3.5 24l336 489l-299 432q-7 12 -1.5 23.5t15.5 11.5h57q28 0 46 -26l258 -371l256 371q18 26 45 26h49q11 0 16.5 -10.5t-2.5 -24.5l-305 -446l332 -475q7 -12 1 -23.5t-16 -11.5h-59q-26 0 -45 27l-289 415l-287 -415q-19 -27 -45 -27h-49
q-12 0 -17.5 11z" />
    <glyph glyph-name="afii10088" unicode="&#x446;" horiz-adv-x="1161" 
d="M178 37v917q0 37 37 37h27q37 0 37 -37v-858h622v858q0 37 37 37h27q21 0 28.5 -9t7.5 -28v-858h95q37 0 37 -37v-329q0 -37 -37 -37h-27q-37 0 -37 37v270h-817q-37 0 -37 37z" />
    <glyph glyph-name="afii10089" unicode="&#x447;" horiz-adv-x="944" 
d="M106 670v284q0 37 37 37h27q37 0 37 -37v-286q0 -65 17.5 -111t50 -69t68 -32.5t81.5 -9.5q139 0 301 72v436q0 37 37 37h26q37 0 37 -37v-917q0 -37 -37 -37h-26q-37 0 -37 37v385q-167 -78 -322 -78q-137 0 -217 78.5t-80 247.5z" />
    <glyph glyph-name="afii10090" unicode="&#x448;" horiz-adv-x="1503" 
d="M178 37v917q0 37 37 37h27q37 0 37 -37v-858h452v858q0 37 37 37h27q21 0 28.5 -9t7.5 -28v-858h453v858q0 37 37 37h27q21 0 28.5 -9t7.5 -28v-917q0 -19 -7.5 -28t-28.5 -9h-1133q-37 0 -37 37z" />
    <glyph glyph-name="afii10091" unicode="&#x449;" horiz-adv-x="1544" 
d="M178 37v917q0 37 37 37h27q37 0 37 -37v-858h452v858q0 37 37 37h27q21 0 28.5 -9t7.5 -28v-858h453v858q0 37 37 37h27q21 0 28.5 -9t7.5 -28v-858h95q37 0 37 -37v-329q0 -37 -37 -37h-27q-37 0 -37 37v270h-1200q-37 0 -37 37z" />
    <glyph glyph-name="afii10092" unicode="&#x44a;" horiz-adv-x="1048" 
d="M-4 938v18q0 35 37 35h325q37 0 37 -37v-342q152 13 221 13q97 0 171 -25.5t117 -68.5t64 -94.5t21 -108.5q0 -141 -97 -234.5t-288 -93.5h-272q-37 0 -37 37v862h-262q-19 0 -28 8.5t-9 30.5zM395 90h217q123 0 198 60.5t75 164.5q0 98 -64.5 157.5t-191.5 59.5
q-119 0 -234 -14v-428z" />
    <glyph glyph-name="afii10093" unicode="&#x44b;" horiz-adv-x="1337" 
d="M242 37v917q0 37 37 37h26q37 0 37 -37v-342q152 13 221 13q97 0 171 -25.5t117 -68.5t64 -94.5t21 -108.5q0 -141 -97 -234.5t-288 -93.5h-272q-37 0 -37 37zM342 90h217q123 0 197.5 60t74.5 165q0 98 -64.5 157.5t-191.5 59.5q-118 0 -233 -14v-428zM1118 37v917
q0 37 37 37h27q37 0 37 -37v-917q0 -37 -37 -37h-27q-37 0 -37 37z" />
    <glyph glyph-name="afii10094" unicode="&#x44c;" horiz-adv-x="931" 
d="M178 37v917q0 37 37 37h27q37 0 37 -37v-342q152 13 221 13q97 0 170.5 -25.5t116.5 -68.5t64 -94.5t21 -108.5q0 -141 -97 -234.5t-288 -93.5h-272q-37 0 -37 37zM279 90h217q123 0 197.5 60t74.5 165q0 98 -64.5 157.5t-191.5 59.5q-118 0 -233 -14v-428z" />
    <glyph glyph-name="afii10095" unicode="&#x44d;" horiz-adv-x="952" 
d="M100 76l11 33q8 25 34 16q115 -51 248 -51q165 0 275 94.5t123 280.5h-480q-18 0 -26.5 8t-8.5 30v21q0 20 8.5 27.5t26.5 7.5h477q-6 183 -98 279t-262 96q-159 0 -301 -74q-9 -3 -12 4q-4 12 -4 24q0 45 35.5 76t91.5 45t103 19.5t91 5.5q222 0 341.5 -129.5
t119.5 -376.5q0 -141 -39.5 -247t-110.5 -168.5t-160.5 -93t-197.5 -30.5q-161 0 -272 64q-20 13 -13 39z" />
    <glyph glyph-name="afii10096" unicode="&#x44e;" horiz-adv-x="1521" 
d="M178 37v917q0 37 37 37h27q37 0 37 -37v-395h210q19 210 150 334.5t336 124.5q224 0 355.5 -142t131.5 -380q0 -237 -133 -380t-354 -143q-217 0 -348 132t-140 356h-208v-424q0 -37 -37 -37h-27q-37 0 -37 37zM592 496q0 -194 101.5 -308t281.5 -114q181 0 282 114.5
t101 307.5q0 194 -101 308t-282 114q-179 0 -281 -114.5t-102 -307.5z" />
    <glyph glyph-name="afii10097" unicode="&#x44f;" horiz-adv-x="993" 
d="M94.5 22.5q0.5 5.5 5.5 8.5q29 20 51 44t60 75l184 247q-112 27 -181 99.5t-69 193.5q0 133 87 215t249 86h357q21 0 28.5 -9t7.5 -28v-917q0 -19 -7.5 -28t-28.5 -9h-27q-37 0 -37 37v344h-262l-205 -285q-39 -55 -68.5 -80.5t-72.5 -25.5q-48 0 -68 22q-4 5 -3.5 10.5z
M250 688q0 -100 71.5 -155.5t200.5 -55.5h252v416h-293q-117 0 -174 -58t-57 -147z" />
    <glyph glyph-name="afii10071" unicode="&#x451;" horiz-adv-x="1064" 
d="M123 492q0 237 122 380t351 146q192 0 298.5 -109.5t106.5 -290.5q0 -78 -20 -131q-6 -12 -20 -12h-734q0 -100 30.5 -178t84.5 -125.5t122.5 -71.5t147.5 -24q132 0 283 69q28 13 39 -12l14 -31q12 -27 -6 -39q-144 -90 -350 -90q-97 0 -180 31.5t-148.5 93.5
t-103 163.5t-37.5 230.5zM223 571h682v62q0 131 -87.5 209t-219.5 78q-97 0 -175 -35.5t-132.5 -115.5t-67.5 -198zM250 1206q0 39 23.5 63.5t62.5 24.5q41 0 68.5 -25t27.5 -63q0 -39 -27 -63.5t-69 -24.5q-40 0 -63 24t-23 64zM692 1206q0 39 24.5 63.5t65.5 24.5
q40 0 67.5 -25t27.5 -63q0 -39 -27 -63.5t-68 -24.5t-65.5 24t-24.5 64z" />
    <glyph glyph-name="uni2000" unicode="&#x2000;" horiz-adv-x="828" 
 />
    <glyph glyph-name="uni2001" unicode="&#x2001;" horiz-adv-x="1656" 
 />
    <glyph glyph-name="uni2002" unicode="&#x2002;" horiz-adv-x="828" 
 />
    <glyph glyph-name="uni2003" unicode="&#x2003;" horiz-adv-x="1656" 
 />
    <glyph glyph-name="uni2004" unicode="&#x2004;" horiz-adv-x="552" 
 />
    <glyph glyph-name="uni2005" unicode="&#x2005;" horiz-adv-x="414" 
 />
    <glyph glyph-name="uni2006" unicode="&#x2006;" horiz-adv-x="276" 
 />
    <glyph glyph-name="uni2007" unicode="&#x2007;" horiz-adv-x="276" 
 />
    <glyph glyph-name="uni2008" unicode="&#x2008;" horiz-adv-x="207" 
 />
    <glyph glyph-name="uni2009" unicode="&#x2009;" horiz-adv-x="331" 
 />
    <glyph glyph-name="uni200A" unicode="&#x200a;" horiz-adv-x="92" 
 />
    <glyph glyph-name="uni2010" unicode="&#x2010;" horiz-adv-x="960" 
d="M164 494v32q0 33 26 33h580q27 0 27 -33v-32q0 -33 -27 -33h-580q-15 0 -20.5 7.5t-5.5 25.5z" />
    <glyph glyph-name="uni2011" unicode="&#x2011;" horiz-adv-x="960" 
d="M164 494v32q0 33 26 33h580q27 0 27 -33v-32q0 -33 -27 -33h-580q-15 0 -20.5 7.5t-5.5 25.5z" />
    <glyph glyph-name="figuredash" unicode="&#x2012;" horiz-adv-x="960" 
d="M164 494v32q0 33 26 33h580q27 0 27 -33v-32q0 -33 -27 -33h-580q-15 0 -20.5 7.5t-5.5 25.5z" />
    <glyph glyph-name="endash" unicode="&#x2013;" horiz-adv-x="1355" 
d="M162 512v29q0 32 26 32h977q27 0 27 -32v-29q0 -33 -27 -33h-977q-15 0 -20.5 7.5t-5.5 25.5z" />
    <glyph glyph-name="emdash" unicode="&#x2014;" horiz-adv-x="1773" 
d="M166 512v29q0 32 27 32h1386q27 0 27 -32v-29q0 -33 -27 -33h-1386q-27 0 -27 33z" />
    <glyph glyph-name="quoteleft" unicode="&#x2018;" horiz-adv-x="481" 
d="M121 1153q0 67 38 144.5t78 126t76 79.5q14 11 27 0l14 -12q12 -13 0 -25q-100 -112 -100 -217q0 -75 51 -121q11 -11 6 -24q-13 -29 -40.5 -45.5t-57.5 -16.5q-37 0 -64.5 29t-27.5 82z" />
    <glyph glyph-name="quoteright" unicode="&#x2019;" horiz-adv-x="475" 
d="M133 926q-12 12 0 24q100 112 100 217q0 75 -51 121q-11 11 -6 25q13 28 40.5 44.5t57.5 16.5q37 0 65 -28.5t28 -81.5q0 -52 -21.5 -109t-54 -104.5t-62.5 -81.5t-55 -56q-13 -11 -27 0z" />
    <glyph glyph-name="quotedblleft" unicode="&#x201c;" horiz-adv-x="782" 
d="M121 1153q0 67 38 144.5t78 126t76 79.5q14 11 27 0l14 -12q12 -13 0 -25q-100 -112 -100 -217q0 -75 51 -121q11 -11 6 -24q-13 -29 -40.5 -45.5t-57.5 -16.5q-37 0 -64.5 29t-27.5 82zM422 1153q0 67 38 144.5t78 126t76 79.5q14 11 27 0l14 -12q13 -13 0 -25
q-100 -112 -100 -217q0 -75 51 -121q11 -11 6 -24q-13 -29 -40.5 -45.5t-57.5 -16.5q-37 0 -64.5 29t-27.5 82z" />
    <glyph glyph-name="quotedblright" unicode="&#x201d;" horiz-adv-x="776" 
d="M133 926q-12 12 0 24q100 112 100 217q0 75 -51 121q-11 11 -6 25q13 28 40.5 44.5t57.5 16.5q37 0 65 -28.5t28 -81.5q0 -52 -21.5 -109t-54 -104.5t-62.5 -81.5t-55 -56q-13 -11 -27 0zM434 926q-12 12 0 24q101 113 101 217q0 74 -52 121q-11 11 -6 25
q13 28 40.5 44.5t57.5 16.5q37 0 65 -28.5t28 -81.5q0 -52 -21.5 -109t-54 -104.5t-62.5 -81.5t-55 -56q-13 -10 -26 0z" />
    <glyph glyph-name="quotedblbase" unicode="&#x201e;" horiz-adv-x="813" 
d="M139 -238q101 113 101 218q0 73 -52 120q-11 11 -6 25q13 28 41 44.5t58 16.5q37 0 64.5 -28.5t27.5 -81.5q0 -52 -21.5 -109t-54 -104t-62.5 -81t-55 -56q-13 -10 -26 0l-15 12q-12 12 0 24zM440 -238q101 113 101 218q0 73 -52 120q-11 11 -6 25q13 28 41 44.5t58 16.5
q37 0 64.5 -28.5t27.5 -81.5q0 -52 -21.5 -109t-54 -104t-62.5 -81t-55 -56q-13 -10 -26 0l-15 12q-12 12 0 24z" />
    <glyph glyph-name="bullet" unicode="&#x2022;" horiz-adv-x="643" 
d="M147 510q0 77 53.5 131.5t131.5 54.5q76 0 130 -54.5t54 -131.5q0 -78 -53.5 -132t-130.5 -54q-78 0 -131.5 54t-53.5 132z" />
    <glyph glyph-name="ellipsis" unicode="&#x2026;" horiz-adv-x="1226" 
d="M137 47q0 46 28.5 70t63.5 24q34 0 63.5 -21t29.5 -61q0 -39 -26.5 -66.5t-66.5 -27.5q-34 0 -63 21.5t-29 60.5zM520 47q0 46 28.5 70t63.5 24q34 0 63.5 -21t29.5 -61q0 -39 -26.5 -66.5t-66.5 -27.5q-34 0 -63 21.5t-29 60.5zM903 47q0 46 28.5 70t63.5 24
q33 0 62.5 -21t29.5 -61q0 -39 -26 -66.5t-66 -27.5q-34 0 -63 21.5t-29 60.5z" />
    <glyph glyph-name="uni202F" unicode="&#x202f;" horiz-adv-x="331" 
 />
    <glyph glyph-name="perthousand" unicode="&#x2030;" horiz-adv-x="2174" 
d="M98 995q0 128 71.5 212.5t205.5 84.5q94 0 158 -41.5t91 -103t27 -137.5q0 -128 -71 -212.5t-205 -84.5q-138 0 -207.5 82t-69.5 200zM195 1001q0 -88 47.5 -147t132.5 -59q84 0 132 62.5t48 148.5q0 88 -47.5 147t-132.5 59q-84 0 -132 -62.5t-48 -148.5zM276 9
q-4 9 5 22l831 1226q21 29 47 29h55q15 0 19.5 -9t-4.5 -22l-826 -1226q-21 -29 -47 -29h-61q-15 0 -19 9zM850 256q0 128 71 212.5t205 84.5q71 0 126 -24t87 -64.5t48 -89.5t16 -105q0 -128 -71.5 -212.5t-205.5 -84.5q-71 0 -125.5 24t-86.5 64.5t-48 89.5t-16 105z
M946 262q0 -88 47.5 -147.5t132.5 -59.5t133 62.5t48 148.5q0 88 -47.5 147.5t-133.5 59.5q-84 0 -132 -62.5t-48 -148.5zM1516 256q0 128 71 212.5t205 84.5q71 0 125.5 -24t86.5 -64.5t48 -89.5t16 -105q0 -128 -71 -212.5t-205 -84.5q-71 0 -125.5 24t-86.5 64.5
t-48 89.5t-16 105zM1612 262q0 -88 47.5 -147.5t132.5 -59.5q84 0 132 62.5t48 148.5q0 88 -47.5 147.5t-132.5 59.5q-84 0 -132 -62.5t-48 -148.5z" />
    <glyph glyph-name="uni205F" unicode="&#x205f;" horiz-adv-x="414" 
 />
    <glyph glyph-name="Euro" unicode="&#x20ac;" horiz-adv-x="1499" 
d="M317 485l15 37q10 27 30 27h119q-2 27 -2 82q0 36 4 106h-145q-11 0 -17 7t-2 18l15 37q10 26 31 26h131q43 231 190 351t365 120q74 0 147.5 -16t124.5 -48t51 -71q0 -20 -12 -35q-5 -5 -12 -2q-143 74 -314 74q-176 0 -285.5 -98t-148.5 -275h561q27 0 21 -26l-13 -37
q-10 -25 -32 -25h-549q-6 -55 -6 -112q0 -51 2 -76h499q28 0 21 -27l-12 -37q-10 -24 -33 -24h-465q30 -179 131.5 -284t282.5 -105q163 0 309 94q20 11 31 -8l18 -31q11 -20 -8 -35q-140 -119 -352 -119q-228 0 -357 126.5t-162 361.5h-153q-11 0 -17 6.5t-2 17.5z" />
    <glyph glyph-name="afii61352" unicode="&#x2116;" horiz-adv-x="2117" 
d="M207 33v1231q0 32 33 32h41q26 0 45 -28l592 -867l161 -260l-18 295v828q0 32 33 32h34q33 0 33 -32v-1231q0 -15 -9 -24t-24 -9h-38q-23 0 -46 29l-602 884l-149 246l16 -299v-827q0 -15 -9 -24t-24 -9h-36q-15 0 -24 9t-9 24zM1399 590q0 -60 15.5 -112.5t48 -95.5
t88.5 -68t130 -25q74 1 130 26t88.5 67t48.5 92.5t16 107.5q0 60 -16 112.5t-48.5 95.5t-88.5 68t-130 25q-74 -1 -130 -26t-88.5 -67t-48 -92.5t-15.5 -107.5zM1403 33v33q0 32 27 32h509q27 0 27 -32v-33q0 -33 -27 -33h-509q-27 0 -27 33zM1503 580q0 100 48 161.5
t130 61.5q80 0 129.5 -56.5t49.5 -154.5q0 -100 -48.5 -161.5t-130.5 -61.5q-79 0 -128.5 56.5t-49.5 154.5z" />
    <glyph glyph-name="trademark" unicode="&#x2122;" horiz-adv-x="1544" 
d="M94 1288v25q0 33 31 33h463q30 0 30 -33v-25q0 -33 -30 -33h-185v-559q0 -19 -6.5 -28t-25.5 -9h-29q-19 0 -26 9t-7 28v559h-184q-31 0 -31 33zM684 696l27 617q3 33 39 33h49q28 0 43 -37l198 -535l197 535q15 37 43 37h49q36 0 39 -33l27 -617q1 -23 -7 -30t-28 -7
h-23q-29 0 -32 37l-17 432l6 99l-32 -99l-164 -434q-11 -28 -37 -28h-41q-26 0 -37 28l-164 434l-31 99l5 -99l-17 -432q-3 -37 -33 -37h-24q-20 0 -28 7t-7 30z" />
    <glyph glyph-name="onethird" unicode="&#x2153;" horiz-adv-x="1847" 
d="M248 1128l14 -22q12 -19 33 -6l135 82v-557q0 -37 37 -37h22q37 0 37 37v620q0 37 -37 37h-24q-23 0 -45 -14l-170 -107q-16 -11 -2 -33zM436 51l848 1211q18 25 41 10l35 -23q24 -17 8 -41l-850 -1210q-18 -25 -41 -10l-33 22q-24 17 -8 41zM1235 682q0 -17 6.5 -23
t22.5 -6h305l-197 -231q-18 -21 -18 -33v-16q0 -13 20 -13h25q42 0 75 -5t67.5 -19t53.5 -44.5t19 -76.5q0 -81 -46.5 -117.5t-119.5 -36.5q-104 0 -186 43q-8 5 -15.5 1.5t-7.5 -13.5q-1 -35 18.5 -60t53.5 -37t66.5 -17t68.5 -5q138 0 201 66.5t63 177.5q0 83 -64 146.5
t-180 64.5l199 227q25 29 25 45v13q0 28 -29 28h-397q-29 0 -29 -28v-31z" />
    <glyph glyph-name="arrowleft" unicode="&#x2190;" horiz-adv-x="1845" 
d="M125 492q-8 11 0 22l459 528q16 20 32 7l31 -27q22 -20 8 -37l-385 -430h1370q37 0 37 -35v-28q0 -22 -9 -30.5t-28 -8.5h-1372l398 -414q15 -17 -9 -37l-32 -27q-14 -10 -31 7z" />
    <glyph glyph-name="arrowup" unicode="&#x2191;" horiz-adv-x="1337" 
d="M125 1055q-12 16 4 32l528 461q11 8 23 0l528 -463q19 -16 4 -34l-24 -27q-19 -23 -37 -8l-430 387v-1366q0 -37 -35 -37h-29q-22 0 -30.5 9t-8.5 28v1368l-432 -389q-17 -15 -36 8z" />
    <glyph glyph-name="arrowright" unicode="&#x2192;" horiz-adv-x="1845" 
d="M168 492v28q0 35 37 35h1370l-385 430q-14 17 8 37l31 27q16 13 33 -7l458 -528q8 -11 0 -22l-469 -510q-16 -16 -30 -7l-33 27q-23 19 -8 37l397 414h-1372q-19 0 -28 8.5t-9 30.5z" />
    <glyph glyph-name="arrowdown" unicode="&#x2193;" horiz-adv-x="1337" 
d="M125 496l25 26q19 23 36 8l430 -387v1366q0 37 35 37h29q22 0 30.5 -9t8.5 -28v-1368l432 389q18 15 37 -8l24 -30q12 -17 -4 -33l-528 -461q-11 -8 -23 0l-528 463q-20 16 -4 35z" />
    <glyph glyph-name="minus" unicode="&#x2212;" horiz-adv-x="1107" 
d="M119 604v25q0 33 26 33h818q26 0 26 -33v-25q0 -33 -26 -33h-818q-15 0 -20.5 7.5t-5.5 25.5z" />
    <glyph glyph-name="radical" unicode="&#x221a;" horiz-adv-x="1329" 
d="M70 852v20q0 33 26 33h246q31 0 43 -24l277 -709l28 -88l27 88q113 306 257.5 702t174.5 478q12 30 41 30h49q15 0 21.5 -8t1.5 -22l-490 -1319q-11 -33 -51 -33h-62q-40 0 -51 33l-313 786h-199q-15 0 -20.5 7.5t-5.5 25.5z" />
    <glyph glyph-name="infinity" unicode="&#x221e;" horiz-adv-x="1523" 
d="M145 516q0 127 76 194.5t182 67.5q59 0 112 -17t101.5 -51t83 -66t80.5 -81q39 47 73 80.5t80 67t100.5 50.5t115.5 17q48 0 91.5 -14.5t81.5 -44t60.5 -81t22.5 -118.5q0 -125 -82 -192.5t-193 -67.5q-105 0 -190.5 50.5t-171.5 138.5q-62 -79 -155.5 -134t-194.5 -55
q-112 0 -192.5 66t-80.5 190zM229 522q0 -86 55.5 -132t135.5 -46q150 0 295 160q-56 59 -96.5 95t-99.5 65.5t-118 29.5q-77 0 -124.5 -48t-47.5 -124zM831 508q70 -77 140 -120.5t155 -43.5q80 0 135.5 46t55.5 132q0 76 -47.5 124t-124.5 48q-85 0 -157.5 -48.5
t-156.5 -137.5z" />
    <glyph glyph-name="approxequal" unicode="&#x2248;" horiz-adv-x="1343" 
d="M178 344q92 125 248 125q55 0 127.5 -21t132.5 -45.5t131.5 -45.5t124.5 -21q108 0 188 86q19 19 39 2l21 -21q20 -20 6 -41q-90 -126 -258 -126q-52 0 -125.5 21t-136 45.5t-132 45.5t-112.5 21q-108 0 -188 -86q-19 -19 -39 -2l-23 22q-19 19 -4 41zM178 653
q92 125 248 125q55 0 127.5 -21t132.5 -45.5t131.5 -45.5t124.5 -21q108 0 188 86q19 19 39 2l21 -20q20 -20 6 -41q-91 -127 -258 -127q-65 0 -164 33.5t-193.5 66.5t-148.5 33q-108 0 -188 -86q-19 -19 -39 -2l-23 22q-19 19 -4 41z" />
    <glyph glyph-name="notequal" unicode="&#x2260;" horiz-adv-x="1171" 
d="M150 449v24q0 33 26 33h311l111 229h-422q-15 0 -20.5 7.5t-5.5 25.5v25q0 32 26 32h465l119 244q9 21 17.5 27t29.5 6h33q13 0 17.5 -10t-1.5 -23l-119 -244h256q27 0 27 -32v-25q0 -33 -27 -33h-299l-110 -229h409q27 0 27 -33v-24q0 -33 -27 -33h-454l-131 -275
q-9 -20 -17.5 -26t-30.5 -6h-32q-13 0 -18 9.5t1 22.5l133 275h-268q-15 0 -20.5 7.5t-5.5 25.5z" />
    <glyph glyph-name="lessequal" unicode="&#x2264;" horiz-adv-x="1011" 
d="M152 215v25q0 32 26 32h633q27 0 27 -32v-25q0 -33 -27 -33h-633q-15 0 -20.5 7.5t-5.5 25.5zM152 680v88q0 33 28 47l629 256q29 11 29 -8v-62q0 -27 -21 -36l-420 -162l-188 -78l188 -78l420 -158q21 -9 21 -36v-62q0 -19 -29 -8l-629 252q-28 14 -28 45z" />
    <glyph glyph-name="greaterequal" unicode="&#x2265;" horiz-adv-x="1011" 
d="M174 215v25q0 32 27 32h633q26 0 26 -32v-25q0 -18 -5.5 -25.5t-20.5 -7.5h-633q-27 0 -27 33zM174 391v62q0 27 21 36l419 158l189 78l-189 78l-419 162q-21 9 -21 36v62q0 19 29 8l628 -256q29 -15 29 -47v-88q0 -30 -29 -45l-628 -252q-29 -11 -29 8z" />
    <glyph glyph-name="uni25FC" unicode="&#x25fc;" horiz-adv-x="993" 
d="M0 0v993h993v-993h-993z" />
    <glyph glyph-name="hyphen.alt" horiz-adv-x="956" 
d="M164 672v33q0 32 26 32h576q27 0 27 -32v-33q0 -33 -27 -33h-576q-15 0 -20.5 7.5t-5.5 25.5z" />
    <glyph glyph-name="endash.alt" horiz-adv-x="1355" 
d="M162 676v29q0 32 26 32h977q27 0 27 -32v-29q0 -33 -27 -33h-977q-15 0 -20.5 7.5t-5.5 25.5z" />
    <glyph glyph-name="emdash.alt" horiz-adv-x="1773" 
d="M166 676v29q0 32 27 32h1386q27 0 27 -32v-29q0 -33 -27 -33h-1386q-27 0 -27 33z" />
    <glyph glyph-name="guillemotleft.alt" horiz-adv-x="983" 
d="M82 668q-19 22 0 41l321 362q21 21 43 4l35 -28q24 -21 2 -48l-286 -315l280 -311q21 -27 -2 -47l-29 -25q-22 -17 -43 4zM487 668q-19 22 0 41l267 301q21 21 43 4l32 -29q23 -20 2 -47l-229 -254l252 -274q22 -27 -2 -48l-29 -24q-22 -17 -43 4z" />
    <glyph glyph-name="guillemotright.alt" horiz-adv-x="983" 
d="M129 410l252 274l-229 254q-21 27 2 47l32 29q22 17 43 -4l267 -301q19 -19 0 -41l-293 -326q-21 -21 -43 -4l-29 24q-24 21 -2 48zM500 999q-22 27 2 48l35 28q22 17 43 -4l321 -362q19 -19 0 -41l-321 -363q-21 -21 -43 -4l-29 25q-23 20 -2 47l280 311z" />
    <glyph glyph-name="zero.alt" 
d="M68 647q0 653 458 653q449 0 449 -673q0 -107 -12 -197t-44 -176.5t-82 -147t-131.5 -97t-187.5 -36.5q-450 0 -450 674zM172 621q0 -549 350 -549q86 0 150 34.5t101 88.5t59.5 133.5t30 156t7.5 170.5q0 90 -9.5 166.5t-34 148.5t-62.5 122.5t-100 81t-142 30.5
q-86 0 -150.5 -34t-102 -88t-60 -133.5t-30 -156.5t-7.5 -171z" />
    <glyph glyph-name="one.alt" 
d="M316 1035.5q0 10.5 10 17.5l272 211q24 18 47 18h51q31 0 31 -33v-1216q0 -33 -31 -33h-41q-30 0 -30 33v1134l-242 -184q-23 -15 -37 4l-24 31q-6 7 -6 17.5z" />
    <glyph glyph-name="two.alt" 
d="M139 29v65q4 67 29 125.5t63 102.5t86 84t100.5 74.5t104 69.5t98 75t82.5 83.5t57 101.5t21 124q0 121 -77 190.5t-199 69.5q-174 0 -303 -107q-10 -7 -17 3q-12 24 -12 45q0 51 55 90t128.5 56t148.5 17q96 0 170 -28t120 -77.5t69.5 -113.5t23.5 -139
q0 -94 -33.5 -174t-87.5 -137.5t-119.5 -108t-133 -96.5t-125 -92.5t-98.5 -105.5t-50 -126h634q31 0 31 -28v-43q0 -13 -8.5 -21t-22.5 -8h-704q-14 0 -22.5 8t-8.5 21z" />
    <glyph glyph-name="three.alt" 
d="M141 139q0 16 6 31q5 8 13 4q61 -45 143.5 -70.5t163.5 -25.5q180 0 255 74t75 206q0 70 -23 122.5t-60.5 84t-93 50.5t-111 25.5t-124.5 6.5q-16 0 -22.5 4t-6.5 17v16q0 19 23 49l348 441h-543q-30 0 -30 28v51q0 29 30 29h664q26 0 26 -39v-14q-2 -15 -26 -49
l-361 -451q189 -2 301.5 -94t112.5 -277q0 -84 -25.5 -153t-77 -121.5t-135 -81.5t-192.5 -29q-42 0 -93 8t-107 25.5t-93 52t-37 80.5z" />
    <glyph glyph-name="four.alt" 
d="M68 358v50q0 36 24 69l565 772q26 33 56 33h78q30 0 30 -33v-837h123q33 0 33 -29v-41q0 -27 -33 -27h-123v-282q0 -33 -30 -33h-41q-31 0 -31 33v282h-604q-47 0 -47 43zM154 412h565v772z" />
    <glyph glyph-name="five.alt" 
d="M139 139q0 16 6 31q5 8 13 4q61 -45 143.5 -70.5t163.5 -25.5q150 0 242 75t92 232q0 63 -18 117.5t-53.5 98.5t-96 69.5t-139.5 25.5q-128 0 -248 -63q-17 -12 -39 -2l-23 10q-17 8 -14 41l63 571q6 29 31 29h594q14 0 22.5 -8t8.5 -21v-51q0 -28 -31 -28h-539l-55 -443
q127 62 248 62q107 0 194.5 -43.5t143 -136.5t55.5 -222q0 -186 -108.5 -302t-315.5 -116q-40 0 -90.5 7.5t-110.5 24t-99.5 51.5t-39.5 83z" />
    <glyph glyph-name="six.alt" 
d="M106 502q0 159 42.5 293t112.5 224.5t163 154t192 93t201 31.5q31 0 31 -22v-53q0 -25 -23 -25q-244 -6 -409.5 -154.5t-204.5 -416.5h2q59 87 151.5 133.5t198.5 46.5q114 0 201 -57t130.5 -148.5t43.5 -200.5q0 -184 -113 -306t-309 -122q-87 0 -157 28.5t-116.5 77
t-78 117t-45 144.5t-13.5 162zM213 457q0 -184 81.5 -289t233.5 -105q76 0 136 27t96.5 73t55 103.5t18.5 122.5q0 155 -78 241.5t-197 86.5q-118 0 -214 -73.5t-132 -186.5z" />
    <glyph glyph-name="seven.alt" 
d="M147 1200v51q0 13 8.5 21t22.5 8h688q14 0 22.5 -8t8.5 -21v-73q0 -28 -12 -56l-510 -1093q-13 -29 -33 -29h-72q-13 0 -18.5 8t0.5 21l547 1142h-621q-14 0 -22.5 8t-8.5 21z" />
    <glyph glyph-name="eight.alt" 
d="M117 291q0 126 76.5 221.5t218.5 149.5q-122 78 -184 158t-62 184q0 126 89.5 209t272.5 83q175 0 272 -88t97 -209q0 -116 -70.5 -192.5t-208.5 -138.5q146 -76 228 -169.5t82 -217.5q0 -97 -56.5 -168t-146.5 -105.5t-201 -34.5q-187 0 -297 85.5t-110 232.5zM221 295
q0 -102 83.5 -168t217.5 -66q74 0 142 25.5t113.5 77t45.5 117.5q0 25 -6 49t-13.5 43.5t-24 41.5t-28.5 36.5t-36.5 34.5t-37.5 30t-42 29t-40 25.5t-42.5 25t-38.5 22.5q-140 -56 -216.5 -140t-76.5 -183zM268 1004q0 -51 21.5 -96t62.5 -81.5t80 -62t92 -53.5
q271 114 271 290q0 99 -80 154t-189 55q-108 0 -183 -53t-75 -153z" />
    <glyph glyph-name="nine.alt" 
d="M113 870q0 190 110.5 309t304.5 119q106 0 185.5 -42.5t126 -117.5t68.5 -167t22 -201q0 -159 -41.5 -293t-111 -224.5t-161 -154.5t-188.5 -93.5t-197 -31.5q-30 0 -30 23v53q0 25 22 25q239 6 401 154.5t201 416.5h-2q-58 -87 -149 -133.5t-195 -46.5q-111 0 -195.5 57
t-127.5 148t-43 200zM217 883q0 -155 75.5 -241.5t190.5 -86.5q116 0 210 73t130 187q0 185 -78.5 289t-226.5 104q-99 0 -169 -47t-101 -119t-31 -159z" />
    <glyph glyph-name="dollar.alt" 
d="M137 934q0 141 93.5 226.5t232.5 101.5v141q0 37 37 37h24q37 0 37 -37v-139q72 -3 134 -19.5t104.5 -50t42.5 -78.5q0 -15 -6 -33q-8 -18 -27 -4q-142 90 -287 90q-71 0 -132 -23t-104.5 -77.5t-43.5 -132.5q0 -61 36.5 -108t95 -78t129.5 -60t141.5 -61.5t129 -73.5
t95 -105.5t36.5 -148.5q0 -79 -28 -141t-76.5 -101t-109 -60.5t-130.5 -25.5v-153q0 -37 -37 -37h-24q-37 0 -37 37v155q-56 4 -106.5 15.5t-95.5 31.5t-72 52.5t-27 72.5q0 22 8 35q10 16 27 2q64 -48 153.5 -80t179.5 -32q71 0 129 21t98 73t40 129q0 70 -36.5 122.5
t-94.5 85t-128.5 60.5t-141 58t-128.5 67.5t-94.5 100t-36.5 145.5z" />
    <glyph glyph-name="Euro.alt" 
d="M-4 485l14 37q10 27 31 27h119q-2 27 -2 82q0 36 4 106h-146q-11 0 -16.5 7t-1.5 18l14 37q10 26 31 26h131q43 231 190 351t365 120q74 0 147.5 -16t125 -48t51.5 -71q0 -19 -13 -35q-5 -5 -12 -2q-143 74 -313 74q-176 0 -285.5 -98t-148.5 -275h561q26 0 20 -26
l-12 -37q-10 -25 -33 -25h-549q-6 -55 -6 -112q0 -51 2 -76h500q27 0 20 -27l-12 -37q-10 -24 -33 -24h-465q30 -179 131.5 -284t282.5 -105q163 0 309 94q20 11 31 -8l19 -31q11 -19 -9 -35q-140 -119 -352 -119q-228 0 -356.5 126.5t-161.5 361.5h-154q-11 0 -16.5 6.5
t-1.5 17.5z" />
    <glyph glyph-name="currency.alt" 
d="M39 248v33q0 28 31 28h125v168h-125q-14 0 -22.5 8.5t-8.5 20.5v33q0 28 31 28h125v672q0 33 32 33h308q105 0 187.5 -22t135 -59t86.5 -89.5t48 -108t14 -119.5q0 -82 -28 -152.5t-82.5 -125.5t-144 -87t-204.5 -32h-248v-168h375q31 0 31 -28v-33q0 -12 -8.5 -20.5
t-22.5 -8.5h-375v-186q0 -15 -9 -24t-24 -9h-39q-32 0 -32 33v186h-125q-14 0 -22.5 8.5t-8.5 20.5zM299 567h240q177 0 268.5 81.5t91.5 230.5q0 147 -90.5 225t-269.5 78h-240v-615z" />
    <glyph glyph-name="cent.alt" 
d="M115 465q0 216 113 344.5t300 146.5v146q0 37 37 37h27q37 0 37 -37v-144q110 -7 202.5 -48t92.5 -103q0 -12 -9 -39q-4 -8 -16 -2q-140 85 -281 94v-788q121 9 256 86q24 12 35 -8l17 -33q9 -22 -6 -35q-115 -93 -291 -107v-163q0 -37 -37 -37h-27q-37 0 -37 37v163
q-195 17 -304 147.5t-109 342.5zM215 465q0 -170 87 -273t239 -118v786q-150 -14 -238 -118t-88 -277z" />
    </font>
</defs>
</svg>
